<svg data-v-423bf9ae="" xmlns="http://www.w3.org/2000/svg" viewBox="0 0 356 90" class="iconLeftSlogan"><!----><!----><!----><g data-v-423bf9ae="" id="8e474cff-fb0a-4009-ad06-73c04d990d6d" fill="#000000" transform="matrix(5.44997732156018,0,0,5.44997732156018,117.62968655471626,-0.34487348263017026)"><path d="M0.91 10.64L0.91 10.64L2.76 10.64C4.79 10.64 5.99 9.16 5.99 7.36L5.99 0.81C5.99 0.56 5.78 0.35 5.53 0.35C5.26 0.35 5.05 0.56 5.05 0.81L5.05 7.36C5.05 8.65 4.23 9.72 2.76 9.70L0.91 9.70C0.66 9.70 0.45 9.91 0.45 10.18C0.45 10.43 0.66 10.64 0.91 10.64ZM3.19 7.36L3.19 7.36C3.19 7.64 2.97 7.83 2.70 7.83L1.05 7.83C0.78 7.83 0.57 8.04 0.57 8.30C0.57 8.55 0.78 8.76 1.05 8.76L2.70 8.76C3.49 8.76 4.12 8.16 4.12 7.36L4.12 0.81C4.12 0.56 3.91 0.35 3.65 0.35C3.40 0.35 3.19 0.56 3.19 0.81ZM10.92 7.84L10.92 7.84L12.28 7.84C12.54 7.84 12.77 7.63 12.77 7.36C12.77 7.29 12.75 7.24 12.73 7.18L12.04 5.50C11.94 5.28 11.68 5.17 11.42 5.26C11.20 5.35 11.09 5.63 11.17 5.87L11.59 6.90L10.92 6.90C10.67 6.90 10.46 7.10 10.46 7.36C10.46 7.63 10.67 7.84 10.92 7.84ZM10.23 10.26L10.23 10.26L10.47 9.72L12.74 9.72L12.96 10.26C13.06 10.51 13.34 10.61 13.58 10.53C13.82 10.42 13.92 10.15 13.83 9.91L13.50 9.10C13.44 8.92 13.26 8.76 13.05 8.76L10.15 8.76L10.15 8.76C9.98 8.76 9.80 8.89 9.72 9.06L9.38 9.91C9.28 10.15 9.39 10.42 9.63 10.53C9.88 10.61 10.15 10.50 10.23 10.26ZM8.23 10.26L8.23 10.26L11.61 1.76L14.98 10.26C15.08 10.50 15.36 10.61 15.60 10.53C15.83 10.42 15.95 10.15 15.85 9.91L12.04 0.36C12.00 0.25 11.91 0.14 11.77 0.10C11.55 0 11.27 0.11 11.17 0.36L7.35 9.91C7.27 10.15 7.39 10.42 7.62 10.53C7.85 10.61 8.12 10.50 8.23 10.26ZM18.21 10.18L18.21 10.18L18.21 0.81C18.21 0.56 18.02 0.36 17.75 0.36C17.50 0.36 17.29 0.56 17.29 0.81L17.29 10.18C17.29 10.43 17.50 10.65 17.75 10.65C18.02 10.65 18.21 10.43 18.21 10.18ZM25.86 10.18L25.86 10.18L25.86 0.81C25.86 0.56 25.65 0.36 25.38 0.36C25.13 0.36 24.92 0.56 24.92 0.81L24.92 10.18C24.92 10.43 25.13 10.65 25.38 10.65C25.65 10.65 25.86 10.43 25.86 10.18ZM24.08 9.91L24.08 9.91L20.01 4.09C19.87 3.86 19.56 3.81 19.36 3.98C19.22 4.06 19.17 4.20 19.17 4.35L19.17 10.18C19.17 10.43 19.36 10.64 19.61 10.64C19.88 10.64 20.09 10.43 20.09 10.18L20.09 5.84L23.31 10.44C23.46 10.65 23.74 10.71 23.97 10.57C24.16 10.40 24.22 10.12 24.08 9.91ZM19.07 1.09L19.07 1.09L23.13 6.92C23.28 7.13 23.56 7.18 23.77 7.03C23.91 6.94 23.98 6.79 23.98 6.64L23.98 0.81C23.98 0.56 23.77 0.36 23.52 0.36C23.27 0.36 23.04 0.56 23.04 0.81L23.04 5.17L19.82 0.56C19.68 0.35 19.39 0.28 19.18 0.45C18.97 0.59 18.91 0.87 19.07 1.09ZM33.42 2.23L33.42 2.23L30.45 2.23C30.18 2.23 29.97 2.42 29.97 2.69L29.97 4.56C29.97 4.82 30.18 5.03 30.45 5.03L32.55 5.03C32.82 5.03 33.03 4.82 33.03 4.56C33.03 4.30 32.82 4.09 32.55 4.09L30.91 4.09L30.91 3.15L33.42 3.15C33.68 3.15 33.89 2.94 33.89 2.69C33.89 2.42 33.68 2.23 33.42 2.23ZM32.55 5.96L32.55 5.96L30.45 5.96C30.18 5.96 29.97 6.17 29.97 6.43L29.97 8.30C29.97 8.55 30.18 8.76 30.45 8.76L33.42 8.76C33.68 8.76 33.89 8.55 33.89 8.30C33.89 8.04 33.68 7.83 33.42 7.83L30.91 7.83L30.91 6.90L32.55 6.90C32.82 6.90 33.03 6.69 33.03 6.43C33.03 6.17 32.82 5.96 32.55 5.96ZM33.42 9.70L33.42 9.70L29.05 9.70L29.05 1.29L33.42 1.29C33.68 1.29 33.89 1.08 33.89 0.81C33.89 0.56 33.68 0.35 33.42 0.35L28.57 0.35C28.32 0.35 28.11 0.56 28.11 0.81L28.11 10.18C28.11 10.43 28.32 10.64 28.57 10.64L33.42 10.64C33.68 10.64 33.89 10.43 33.89 10.18C33.89 9.91 33.68 9.70 33.42 9.70ZM36.90 0.99L36.90 0.99L38.77 5.60C38.93 5.98 39.48 5.98 39.63 5.60L41.52 0.99C41.61 0.74 41.50 0.49 41.26 0.38C41.02 0.29 40.74 0.41 40.66 0.64L39.21 4.19L37.76 0.64C37.66 0.41 37.39 0.29 37.14 0.38C36.92 0.49 36.79 0.74 36.90 0.99ZM42.77 0.64L42.77 0.64L39.21 9.38L35.64 0.64C35.55 0.41 35.28 0.29 35.04 0.38C34.79 0.49 34.69 0.74 34.78 0.99L38.77 10.78C38.93 11.17 39.47 11.17 39.63 10.78L43.62 0.99C43.72 0.74 43.61 0.49 43.37 0.38C43.15 0.29 42.87 0.41 42.77 0.64Z"></path></g><!----><g data-v-423bf9ae="" id="34dc7b1d-b9b1-4326-a071-0778c815402f" transform="matrix(1.6642628762444607,0,0,1.6642628762444607,-33.555593633281646,-36.94525081751462)" stroke="none" fill="#079607"><path d="M80.281 44.81l-2.42-3.237-.076-3.554 2.28-3.338a1 1 0 0 0-.03-1.169l-1.897-2.498a.998.998 0 0 0-1.118-.342l-3.825 1.3-3.404-1.022-2.47-3.202a1.002 1.002 0 0 0-1.122-.334l-2.963 1.033a1 1 0 0 0-.67.958l.055 4.035-2.03 2.928-3.804 1.358a1 1 0 0 0-.664.963l.067 3.138a1 1 0 0 0 .705.933l3.858 1.196 2.153 2.838.116 4.034a1 1 0 0 0 .711.928l3.004.906a1.004 1.004 0 0 0 1.107-.38l2.332-3.306 3.357-1.167 3.876 1.137c.411.12.857-.035 1.103-.39l1.79-2.577a1 1 0 0 0-.02-1.17zm-3 2.014L73.787 45.8a1.003 1.003 0 0 0-.61.015l-3.962 1.378a1.004 1.004 0 0 0-.49.368l-2.101 2.978-1.624-.49-.105-3.633a1.006 1.006 0 0 0-.203-.576l-2.54-3.349a.998.998 0 0 0-.502-.35l-3.476-1.078-.036-1.696 3.427-1.224c.198-.07.368-.2.487-.372l2.394-3.454c.118-.171.18-.375.178-.584l-.05-3.634 1.602-.559 2.226 2.886a1 1 0 0 0 .504.347l4.019 1.207c.201.06.413.057.61-.01l3.445-1.173 1.026 1.35-2.055 3.009a1.005 1.005 0 0 0-.174.585l.09 4.195c.004.209.073.41.198.578l2.182 2.916-.968 1.394z"></path><path d="M68.837 36.07a3.921 3.921 0 0 0-3.832 3.999 3.89 3.89 0 0 0 1.206 2.744 3.89 3.89 0 0 0 2.708 1.09l.085-.001a3.923 3.923 0 0 0 3.833-4 3.895 3.895 0 0 0-1.206-2.744 3.909 3.909 0 0 0-2.794-1.088zm.124 5.832a1.927 1.927 0 0 1-1.956-1.875 1.918 1.918 0 0 1 1.875-1.957h.042c.496 0 .966.187 1.325.532.37.354.58.831.59 1.343a1.92 1.92 0 0 1-1.876 1.957zM50.862 52.39a1 1 0 0 0 1.187-.447l3.014-5.221a1 1 0 0 0-.206-1.251l-3.53-3.105-.205-3.989 3.485-3.064a1 1 0 0 0 .206-1.25L51.8 28.84a1 1 0 0 0-1.187-.447l-4.425 1.497-3.632-2.097-.915-4.494a1 1 0 0 0-.98-.8h-6.03a1 1 0 0 0-.979.8l-.915 4.494-3.632 2.097-4.425-1.497a1 1 0 0 0-1.187.447l-3.014 5.221a1 1 0 0 0 .206 1.251l3.508 3.084v4.192l-3.508 3.084a1 1 0 0 0-.206 1.251l3.014 5.222a1 1 0 0 0 1.187.447l4.425-1.497 3.63 2.096.916 4.58a1 1 0 0 0 .98.805h6.03a1 1 0 0 0 .98-.804l.918-4.586 3.883-2.291 4.421 1.495zm-5.042-3.45l-4.663 2.75a1 1 0 0 0-.472.666l-.844 4.22h-4.39l-.845-4.22a1.002 1.002 0 0 0-.48-.67l-4.414-2.548a1.005 1.005 0 0 0-.82-.081l-4.078 1.379-2.194-3.802 3.233-2.842a1 1 0 0 0 .34-.75v-5.097a1 1 0 0 0-.34-.751l-3.233-2.841 2.194-3.802 4.078 1.38c.273.09.57.06.82-.082l4.414-2.548a1 1 0 0 0 .48-.667l.841-4.134h4.397l.842 4.134a1 1 0 0 0 .479.667l4.414 2.548c.248.143.548.173.82.081l4.078-1.38 2.194 3.803-3.233 2.84a1 1 0 0 0-.338.803l.25 4.894c.013.27.135.522.338.7l3.233 2.842-2.194 3.801-4.079-1.379a1 1 0 0 0-.828.086z"></path><path d="M37.77 33.809a6.737 6.737 0 0 0-6.729 6.73c0 3.71 3.019 6.73 6.73 6.73s6.729-3.02 6.729-6.73c0-3.711-3.019-6.73-6.73-6.73zm0 11.46c-2.607 0-4.729-2.123-4.729-4.73s2.122-4.73 4.73-4.73 4.729 2.122 4.729 4.73-2.122 4.73-4.73 4.73zM67.62 65.322l-.12-2.343 2.191-1.926a1 1 0 0 0 .206-1.251l-2-3.466a1 1 0 0 0-1.187-.447l-2.793.944-2.147-1.24-.578-2.833a1 1 0 0 0-.98-.8h-4.001a1 1 0 0 0-.98.8l-.577 2.834-2.148 1.24-2.793-.945a1 1 0 0 0-1.187.447l-2 3.466a1 1 0 0 0 .205 1.25L48.946 63v2.477l-2.215 1.947a1 1 0 0 0-.206 1.25l2.001 3.467c.239.412.736.598 1.187.447l2.793-.945 2.146 1.238.578 2.892a1 1 0 0 0 .98.804h4.003a1 1 0 0 0 .98-.804l.58-2.897 2.315-1.366 2.788.943a1 1 0 0 0 1.187-.447l2-3.466a1 1 0 0 0-.206-1.25l-2.237-1.968zm-.88 4.974l-2.445-.827a1 1 0 0 0-.828.086l-3.095 1.825a1 1 0 0 0-.473.665l-.505 2.532H57.03l-.506-2.532a1.002 1.002 0 0 0-.48-.67l-2.93-1.69a1.005 1.005 0 0 0-.82-.081l-2.445.827-1.181-2.046 1.938-1.704a1 1 0 0 0 .34-.751v-3.383a1 1 0 0 0-.34-.751l-1.938-1.704 1.18-2.046 2.446.827c.272.092.571.062.82-.081l2.93-1.691a1 1 0 0 0 .48-.667l.503-2.475h2.37l.503 2.475c.057.28.232.523.48.666l2.929 1.692a.998.998 0 0 0 .82.081l2.445-.827 1.18 2.046-1.938 1.704a1 1 0 0 0-.338.802l.166 3.248a.997.997 0 0 0 .338.7l1.939 1.704-1.18 2.046z"></path><path d="M58.294 60.25c-2.215 0-4.018 1.803-4.018 4.018s1.803 4.018 4.018 4.018c2.216 0 4.019-1.803 4.019-4.018s-1.803-4.018-4.02-4.018zm0 6.036c-1.112 0-2.018-.905-2.018-2.018s.906-2.018 2.018-2.018c1.113 0 2.019.905 2.019 2.018s-.906 2.018-2.02 2.018z"></path></g><!----><g data-v-423bf9ae="" id="cb8c29d6-c4a6-4ec3-b56b-c73a1885a4c5" fill="#000000" transform="matrix(0.6753223954093077,0,0,0.6753223954093077,119.6161960160668,57.54857956314228)"><path d="M7.91 13.29L7.83 13.29L7.73 13.29C7.69 13.29 7.62 13.27 7.52 13.27C7.42 13.27 7.29 13.26 7.17 13.26L7.17 9.37C7.17 8.96 7.13 8.60 7.03 8.27C6.93 7.95 6.79 7.67 6.59 7.45C6.40 7.22 6.16 7.06 5.87 6.93C5.57 6.80 5.24 6.75 4.86 6.75C4.34 6.75 3.88 6.86 3.46 7.10C3.05 7.34 2.69 7.66 2.37 8.05L2.37 3.64L1.69 3.64L0.69 3.64L0.69 3.91C0.69 4.06 0.78 4.14 0.97 4.16L1.04 4.16C1.06 4.16 1.11 4.17 1.15 4.17L1.36 4.17C1.46 4.17 1.57 4.19 1.69 4.19L1.69 13.26C1.54 13.26 1.40 13.29 1.29 13.29L1.05 13.29L0.97 13.29C0.78 13.30 0.69 13.38 0.69 13.54L0.69 13.82L1.69 13.82L2.37 13.82L3.37 13.82L3.37 13.54C3.37 13.38 3.28 13.30 3.09 13.29L3.02 13.29L2.91 13.29C2.87 13.29 2.80 13.27 2.70 13.27C2.60 13.27 2.49 13.26 2.37 13.26L2.37 8.60C2.67 8.19 3.02 7.87 3.42 7.63C3.81 7.39 4.23 7.28 4.69 7.28C5.31 7.28 5.77 7.46 6.06 7.83C6.36 8.20 6.51 8.71 6.51 9.37L6.51 13.82L7.17 13.82L8.18 13.82L8.18 13.54C8.18 13.38 8.09 13.30 7.91 13.29ZM19.42 6.73C18.93 6.73 18.48 6.83 18.09 7.00C17.70 7.17 17.37 7.41 17.11 7.71C16.84 8.02 16.63 8.39 16.49 8.81C16.35 9.23 16.27 9.69 16.27 10.19C16.27 10.78 16.35 11.31 16.51 11.77C16.66 12.24 16.87 12.61 17.15 12.94C17.43 13.26 17.77 13.50 18.16 13.66C18.55 13.83 18.98 13.90 19.46 13.90C19.73 13.90 19.99 13.89 20.24 13.83C20.50 13.78 20.75 13.71 20.97 13.62C21.20 13.54 21.41 13.44 21.59 13.31C21.77 13.19 21.92 13.06 22.04 12.92L21.85 12.70C21.83 12.66 21.77 12.63 21.71 12.63C21.67 12.63 21.59 12.66 21.49 12.74C21.39 12.82 21.25 12.91 21.07 13.01C20.90 13.10 20.68 13.17 20.43 13.26C20.17 13.34 19.87 13.38 19.52 13.38C19.12 13.38 18.77 13.31 18.45 13.17C18.13 13.03 17.86 12.84 17.64 12.57C17.42 12.31 17.25 11.97 17.12 11.58C17.00 11.19 16.94 10.71 16.94 10.19L16.94 10.07L21.97 10.07C22.04 10.07 22.08 10.05 22.11 10.01C22.13 9.97 22.16 9.90 22.16 9.80C22.16 9.31 22.09 8.88 21.95 8.50C21.81 8.12 21.63 7.78 21.38 7.53C21.14 7.28 20.85 7.08 20.51 6.94C20.17 6.80 19.81 6.73 19.42 6.73ZM19.43 7.24C19.75 7.24 20.03 7.29 20.30 7.41C20.57 7.52 20.79 7.67 20.97 7.88C21.15 8.09 21.31 8.33 21.41 8.62C21.50 8.92 21.56 9.25 21.56 9.63L16.97 9.63C17.01 9.27 17.09 8.93 17.22 8.64C17.35 8.34 17.51 8.09 17.72 7.88C17.93 7.67 18.19 7.52 18.47 7.41C18.75 7.29 19.07 7.24 19.43 7.24ZM32.79 13.29L32.72 13.29L32.61 13.29C32.56 13.29 32.49 13.27 32.40 13.27C32.30 13.27 32.19 13.26 32.06 13.26L32.06 3.63L31.39 3.63L30.38 3.63L30.38 3.91C30.38 4.06 30.48 4.14 30.66 4.16L30.73 4.16C30.76 4.16 30.80 4.17 30.84 4.17L31.05 4.17C31.15 4.17 31.26 4.19 31.39 4.19L31.39 13.26C31.23 13.26 31.09 13.29 30.98 13.29L30.74 13.29L30.66 13.29C30.48 13.30 30.38 13.38 30.38 13.54L30.38 13.82L31.39 13.82L32.06 13.82L33.07 13.82L33.07 13.54C33.07 13.38 32.97 13.30 32.79 13.29ZM47.01 7.63C46.54 7.04 45.86 6.73 45.01 6.73C44.49 6.73 44.04 6.86 43.62 7.11C43.22 7.36 42.85 7.69 42.55 8.11L42.48 7.03C42.48 6.96 42.46 6.92 42.42 6.89C42.38 6.86 42.32 6.86 42.27 6.86L41.90 6.86L40.89 6.86L40.89 7.13C40.89 7.28 40.99 7.36 41.17 7.38L41.24 7.38C41.27 7.38 41.31 7.39 41.36 7.39L41.57 7.39C41.66 7.39 41.78 7.41 41.90 7.41L41.90 15.72C41.75 15.72 41.61 15.75 41.50 15.75L41.26 15.75L41.17 15.75C40.99 15.76 40.89 15.85 40.89 16.00L40.89 16.28L41.90 16.28L42.57 16.28L43.58 16.28L43.58 16.00C43.58 15.85 43.48 15.76 43.30 15.75L43.23 15.75L43.12 15.75C43.08 15.75 43.01 15.74 42.91 15.74C42.81 15.74 42.70 15.72 42.57 15.72L42.57 12.88C42.83 13.22 43.12 13.48 43.47 13.65C43.82 13.82 44.23 13.90 44.70 13.90C45.19 13.90 45.61 13.80 45.99 13.62C46.37 13.44 46.69 13.19 46.94 12.87C47.19 12.54 47.40 12.15 47.53 11.72C47.67 11.28 47.73 10.79 47.73 10.29C47.73 9.10 47.49 8.22 47.01 7.63ZM46.89 11.55C46.79 11.93 46.62 12.25 46.41 12.53C46.20 12.81 45.95 13.01 45.64 13.16C45.33 13.31 44.97 13.38 44.56 13.38C44.14 13.38 43.78 13.30 43.46 13.13C43.13 12.96 42.84 12.70 42.57 12.29L42.57 8.64C42.87 8.20 43.19 7.87 43.57 7.63C43.95 7.39 44.37 7.28 44.83 7.28C45.54 7.28 46.09 7.52 46.47 8.01C46.84 8.50 47.04 9.25 47.04 10.29C47.04 10.75 47.00 11.17 46.89 11.55ZM76.45 6.86L75.96 6.86L74.61 6.86L74.61 7.13C74.61 7.28 74.70 7.36 74.89 7.38L74.96 7.38C74.98 7.38 75.01 7.39 75.05 7.39L75.26 7.39C75.36 7.39 75.47 7.41 75.60 7.41L73.96 12.52C73.92 12.63 73.91 12.73 73.88 12.82C73.85 12.92 73.84 13.02 73.82 13.12C73.78 12.92 73.72 12.73 73.65 12.52L71.81 6.97C71.78 6.87 71.71 6.82 71.61 6.82L71.33 6.82C71.23 6.82 71.16 6.87 71.13 6.97L69.27 12.52C69.23 12.63 69.20 12.73 69.17 12.82L69.09 13.12C69.09 13.09 69.06 12.99 69.03 12.82C69.02 12.73 68.99 12.63 68.96 12.52L67.33 7.41C67.48 7.41 67.63 7.39 67.75 7.39C67.86 7.39 67.94 7.38 67.97 7.38L68.05 7.38C68.24 7.36 68.33 7.28 68.33 7.13L68.33 6.86L66.96 6.85L66.44 6.86L65.90 6.86L65.90 7.13C65.90 7.28 65.98 7.36 66.16 7.38L66.23 7.38L66.30 7.38C66.33 7.38 66.37 7.39 66.43 7.39L66.63 7.39L68.78 13.82L69.24 13.82C69.33 13.82 69.38 13.76 69.41 13.66L71.34 8.01C71.37 7.94 71.40 7.88 71.41 7.81L71.46 7.60L71.50 7.81C71.51 7.88 71.54 7.94 71.57 8.01L73.47 13.66C73.50 13.76 73.57 13.82 73.64 13.82L74.13 13.82L76.27 7.39L76.54 7.39C76.62 7.39 76.66 7.38 76.69 7.38L76.76 7.38C76.94 7.36 77.04 7.28 77.04 7.13L77.04 6.86ZM92.30 13.29L92.22 13.29L92.12 13.29C92.08 13.29 92.01 13.27 91.91 13.27C91.81 13.27 91.69 13.26 91.56 13.26L91.56 9.37C91.56 8.96 91.52 8.60 91.42 8.27C91.32 7.95 91.18 7.67 90.99 7.45C90.79 7.22 90.55 7.06 90.26 6.93C89.96 6.80 89.63 6.75 89.25 6.75C88.73 6.75 88.27 6.86 87.85 7.10C87.44 7.34 87.08 7.66 86.76 8.05L86.76 3.64L86.09 3.64L85.08 3.64L85.08 3.91C85.08 4.06 85.18 4.14 85.36 4.16L85.43 4.16C85.46 4.16 85.50 4.17 85.54 4.17L85.75 4.17C85.85 4.17 85.96 4.19 86.09 4.19L86.09 13.26C85.93 13.26 85.79 13.29 85.68 13.29L85.44 13.29L85.36 13.29C85.18 13.30 85.08 13.38 85.08 13.54L85.08 13.82L86.09 13.82L86.76 13.82L87.77 13.82L87.77 13.54C87.77 13.38 87.67 13.30 87.49 13.29L87.42 13.29L87.30 13.29C87.26 13.29 87.19 13.27 87.09 13.27C87.00 13.27 86.88 13.26 86.76 13.26L86.76 8.60C87.07 8.19 87.42 7.87 87.81 7.63C88.20 7.39 88.62 7.28 89.08 7.28C89.70 7.28 90.16 7.46 90.45 7.83C90.75 8.20 90.90 8.71 90.90 9.37L90.90 13.82L91.56 13.82L92.57 13.82L92.57 13.54C92.57 13.38 92.48 13.30 92.30 13.29ZM103.81 6.73C103.32 6.73 102.87 6.83 102.48 7.00C102.09 7.17 101.77 7.41 101.50 7.71C101.23 8.02 101.02 8.39 100.88 8.81C100.74 9.23 100.66 9.69 100.66 10.19C100.66 10.78 100.74 11.31 100.90 11.77C101.05 12.24 101.26 12.61 101.54 12.94C101.82 13.26 102.16 13.50 102.55 13.66C102.94 13.83 103.38 13.90 103.85 13.90C104.12 13.90 104.38 13.89 104.64 13.83C104.89 13.78 105.14 13.71 105.36 13.62C105.59 13.54 105.80 13.44 105.98 13.31C106.16 13.19 106.32 13.06 106.43 12.92L106.25 12.70C106.22 12.66 106.16 12.63 106.11 12.63C106.06 12.63 105.98 12.66 105.88 12.74C105.78 12.82 105.64 12.91 105.46 13.01C105.29 13.10 105.07 13.17 104.82 13.26C104.57 13.34 104.26 13.38 103.91 13.38C103.52 13.38 103.17 13.31 102.84 13.17C102.52 13.03 102.26 12.84 102.03 12.57C101.81 12.31 101.64 11.97 101.51 11.58C101.39 11.19 101.33 10.71 101.33 10.19L101.33 10.07L106.36 10.07C106.43 10.07 106.47 10.05 106.50 10.01C106.53 9.97 106.55 9.90 106.55 9.80C106.55 9.31 106.48 8.88 106.34 8.50C106.20 8.12 106.02 7.78 105.77 7.53C105.53 7.28 105.24 7.08 104.90 6.94C104.57 6.80 104.20 6.73 103.81 6.73ZM103.82 7.24C104.15 7.24 104.43 7.29 104.69 7.41C104.96 7.52 105.18 7.67 105.36 7.88C105.55 8.09 105.70 8.33 105.80 8.62C105.90 8.92 105.95 9.25 105.95 9.63L101.36 9.63C101.40 9.27 101.49 8.93 101.61 8.64C101.74 8.34 101.91 8.09 102.12 7.88C102.33 7.67 102.58 7.52 102.86 7.41C103.14 7.29 103.46 7.24 103.82 7.24ZM122.02 13.29L121.95 13.29L121.84 13.29C121.80 13.29 121.73 13.27 121.63 13.27C121.53 13.27 121.42 13.26 121.30 13.26L121.30 9.37C121.30 8.96 121.24 8.60 121.14 8.27C121.04 7.95 120.90 7.67 120.71 7.45C120.51 7.22 120.27 7.06 119.98 6.93C119.69 6.80 119.35 6.75 118.97 6.75C118.45 6.75 117.98 6.87 117.56 7.11C117.14 7.36 116.77 7.67 116.45 8.08L116.40 7.03C116.38 6.92 116.31 6.86 116.19 6.86L115.82 6.86L114.81 6.86L114.81 7.13C114.81 7.28 114.90 7.36 115.08 7.38L115.16 7.38C115.19 7.38 115.22 7.39 115.26 7.39L115.47 7.39C115.57 7.39 115.70 7.41 115.82 7.41L115.82 13.26C115.65 13.26 115.51 13.29 115.40 13.29L115.18 13.29L115.08 13.29C114.90 13.30 114.81 13.38 114.81 13.54L114.81 13.82L115.82 13.82L116.48 13.82L117.49 13.82L117.49 13.54C117.49 13.38 117.40 13.30 117.22 13.29L117.14 13.29L117.04 13.29C117.00 13.29 116.93 13.27 116.83 13.27C116.73 13.27 116.61 13.26 116.48 13.26L116.48 8.60C116.79 8.19 117.14 7.87 117.53 7.63C117.92 7.39 118.34 7.28 118.80 7.28C119.42 7.28 119.88 7.46 120.18 7.83C120.47 8.20 120.62 8.71 120.62 9.37L120.62 13.82L121.30 13.82L122.30 13.82L122.30 13.54C122.30 13.38 122.21 13.30 122.02 13.29ZM147.48 6.86L146.96 6.86L145.56 6.86L145.56 7.13C145.56 7.28 145.66 7.36 145.84 7.38L145.91 7.38C145.94 7.38 145.96 7.39 146.01 7.39L146.22 7.39C146.31 7.39 146.43 7.41 146.55 7.41L144.41 12.45L144.33 12.66C144.30 12.73 144.28 12.80 144.26 12.87C144.24 12.80 144.20 12.73 144.19 12.66C144.16 12.59 144.14 12.52 144.12 12.45L141.95 7.41C142.10 7.41 142.24 7.39 142.35 7.39C142.46 7.39 142.55 7.38 142.58 7.38L142.66 7.38C142.84 7.36 142.94 7.28 142.94 7.13L142.94 6.86L141.53 6.86L141.53 6.86L140.97 6.86L140.50 6.86L140.50 7.13C140.50 7.28 140.60 7.36 140.78 7.38C140.78 7.38 140.92 7.38 141.20 7.39L143.92 13.57L142.69 16.28L143.16 16.28C143.25 16.28 143.32 16.25 143.36 16.21C143.40 16.17 143.44 16.13 143.47 16.06L147.24 7.39L147.49 7.39C147.57 7.39 147.62 7.38 147.64 7.38L147.71 7.38C147.90 7.36 147.99 7.28 147.99 7.13L147.99 6.86ZM158.87 6.73C158.37 6.73 157.92 6.83 157.53 7.00C157.14 7.17 156.80 7.41 156.52 7.71C156.24 8.02 156.04 8.40 155.90 8.85C155.76 9.30 155.68 9.79 155.68 10.33C155.68 10.88 155.76 11.37 155.90 11.80C156.04 12.24 156.24 12.63 156.52 12.94C156.80 13.24 157.14 13.48 157.53 13.65C157.92 13.82 158.37 13.90 158.87 13.90C159.38 13.90 159.81 13.82 160.20 13.65C160.59 13.48 160.93 13.24 161.20 12.94C161.46 12.63 161.69 12.24 161.83 11.80C161.97 11.37 162.04 10.88 162.04 10.33C162.04 9.79 161.97 9.30 161.83 8.85C161.69 8.40 161.46 8.02 161.20 7.71C160.93 7.41 160.59 7.17 160.20 7.00C159.81 6.83 159.38 6.73 158.87 6.73ZM158.87 13.38C158.45 13.38 158.09 13.31 157.78 13.17C157.47 13.03 157.21 12.82 157.00 12.56C156.79 12.29 156.65 11.97 156.53 11.59C156.42 11.21 156.38 10.79 156.38 10.33C156.38 9.87 156.42 9.45 156.53 9.07C156.65 8.69 156.79 8.37 157.00 8.11C157.21 7.84 157.47 7.62 157.78 7.48C158.09 7.34 158.45 7.27 158.87 7.27C159.29 7.27 159.64 7.34 159.95 7.48C160.26 7.62 160.52 7.84 160.73 8.11C160.94 8.37 161.10 8.69 161.20 9.07C161.29 9.45 161.35 9.87 161.35 10.33C161.35 10.79 161.29 11.21 161.20 11.59C161.10 11.97 160.94 12.29 160.73 12.56C160.52 12.82 160.26 13.03 159.95 13.17C159.64 13.31 159.29 13.38 158.87 13.38ZM177.07 13.29L177.00 13.29L176.89 13.29C176.85 13.29 176.78 13.27 176.68 13.27C176.58 13.27 176.47 13.26 176.34 13.26L176.34 6.85L175.67 6.86L174.66 6.86L174.66 7.13C174.66 7.28 174.76 7.36 174.94 7.38L175.01 7.38C175.04 7.38 175.08 7.39 175.13 7.39L175.34 7.39C175.43 7.39 175.55 7.41 175.67 7.41L175.67 12.08C175.36 12.49 175.00 12.81 174.61 13.05C174.22 13.27 173.80 13.40 173.35 13.40C172.73 13.40 172.27 13.20 171.98 12.84C171.68 12.46 171.53 11.96 171.53 11.30L171.53 6.85L170.86 6.86L169.85 6.86L169.85 7.13C169.85 7.28 169.95 7.36 170.13 7.38L170.20 7.38C170.23 7.38 170.27 7.39 170.31 7.39L170.52 7.39C170.62 7.39 170.73 7.41 170.86 7.41L170.86 11.30C170.86 11.70 170.91 12.07 171.01 12.39C171.11 12.71 171.25 12.99 171.44 13.22C171.64 13.44 171.86 13.62 172.16 13.75C172.45 13.87 172.79 13.93 173.18 13.93C173.70 13.93 174.17 13.80 174.59 13.57C175.01 13.33 175.39 13.01 175.71 12.60L175.77 13.64C175.77 13.76 175.85 13.82 175.98 13.82L176.34 13.82L177.35 13.82L177.35 13.54C177.35 13.38 177.25 13.30 177.07 13.29ZM203.25 13.29L203.18 13.29L203.07 13.29C203.03 13.29 202.96 13.27 202.86 13.27C202.76 13.27 202.65 13.26 202.52 13.26L202.52 9.37C202.52 8.96 202.47 8.60 202.37 8.27C202.27 7.95 202.13 7.67 201.94 7.45C201.74 7.22 201.50 7.06 201.21 6.93C200.91 6.80 200.58 6.75 200.20 6.75C199.68 6.75 199.21 6.87 198.79 7.11C198.37 7.36 198.00 7.67 197.68 8.08L197.62 7.03C197.61 6.92 197.54 6.86 197.41 6.86L197.05 6.86L196.04 6.86L196.04 7.13C196.04 7.28 196.13 7.36 196.31 7.38L196.39 7.38C196.42 7.38 196.45 7.39 196.49 7.39L196.70 7.39C196.80 7.39 196.92 7.41 197.05 7.41L197.05 13.26C196.88 13.26 196.74 13.29 196.63 13.29L196.41 13.29L196.31 13.29C196.13 13.30 196.04 13.38 196.04 13.54L196.04 13.82L197.05 13.82L197.71 13.82L198.72 13.82L198.72 13.54C198.72 13.38 198.63 13.30 198.45 13.29L198.37 13.29L198.27 13.29C198.23 13.29 198.16 13.27 198.06 13.27C197.96 13.27 197.83 13.26 197.71 13.26L197.71 8.60C198.02 8.19 198.37 7.87 198.76 7.63C199.15 7.39 199.57 7.28 200.03 7.28C200.65 7.28 201.11 7.46 201.40 7.83C201.70 8.20 201.85 8.71 201.85 9.37L201.85 13.82L202.52 13.82L203.53 13.82L203.53 13.54C203.53 13.38 203.43 13.30 203.25 13.29ZM214.80 6.73C214.31 6.73 213.86 6.83 213.47 7.00C213.08 7.17 212.76 7.41 212.49 7.71C212.23 8.02 212.02 8.39 211.88 8.81C211.74 9.23 211.65 9.69 211.65 10.19C211.65 10.78 211.74 11.31 211.89 11.77C212.04 12.24 212.25 12.61 212.53 12.94C212.81 13.26 213.15 13.50 213.54 13.66C213.93 13.83 214.37 13.90 214.84 13.90C215.11 13.90 215.38 13.89 215.63 13.83C215.88 13.78 216.13 13.71 216.36 13.62C216.58 13.54 216.79 13.44 216.97 13.31C217.15 13.19 217.31 13.06 217.42 12.92L217.24 12.70C217.21 12.66 217.15 12.63 217.10 12.63C217.06 12.63 216.97 12.66 216.87 12.74C216.78 12.82 216.64 12.91 216.45 13.01C216.29 13.10 216.06 13.17 215.81 13.26C215.56 13.34 215.25 13.38 214.90 13.38C214.51 13.38 214.16 13.31 213.84 13.17C213.51 13.03 213.25 12.84 213.02 12.57C212.80 12.31 212.63 11.97 212.51 11.58C212.38 11.19 212.32 10.71 212.32 10.19L212.32 10.07L217.35 10.07C217.42 10.07 217.46 10.05 217.49 10.01C217.52 9.97 217.55 9.90 217.55 9.80C217.55 9.31 217.48 8.88 217.34 8.50C217.20 8.12 217.01 7.78 216.76 7.53C216.52 7.28 216.23 7.08 215.89 6.94C215.56 6.80 215.19 6.73 214.80 6.73ZM214.82 7.24C215.14 7.24 215.42 7.29 215.68 7.41C215.95 7.52 216.17 7.67 216.36 7.88C216.54 8.09 216.69 8.33 216.79 8.62C216.89 8.92 216.94 9.25 216.94 9.63L212.35 9.63C212.39 9.27 212.48 8.93 212.60 8.64C212.73 8.34 212.90 8.09 213.11 7.88C213.32 7.67 213.57 7.52 213.85 7.41C214.13 7.29 214.45 7.24 214.82 7.24ZM228.76 6.73C228.27 6.73 227.82 6.83 227.43 7.00C227.04 7.17 226.72 7.41 226.45 7.71C226.18 8.02 225.97 8.39 225.83 8.81C225.69 9.23 225.61 9.69 225.61 10.19C225.61 10.78 225.69 11.31 225.85 11.77C226.00 12.24 226.21 12.61 226.49 12.94C226.77 13.26 227.11 13.50 227.50 13.66C227.89 13.83 228.33 13.90 228.80 13.90C229.07 13.90 229.33 13.89 229.59 13.83C229.84 13.78 230.09 13.71 230.31 13.62C230.54 13.54 230.75 13.44 230.93 13.31C231.11 13.19 231.27 13.06 231.38 12.92L231.20 12.70C231.17 12.66 231.11 12.63 231.06 12.63C231.01 12.63 230.93 12.66 230.83 12.74C230.73 12.82 230.59 12.91 230.41 13.01C230.24 13.10 230.02 13.17 229.77 13.26C229.52 13.34 229.21 13.38 228.86 13.38C228.47 13.38 228.12 13.31 227.79 13.17C227.47 13.03 227.21 12.84 226.98 12.57C226.76 12.31 226.59 11.97 226.46 11.58C226.34 11.19 226.28 10.71 226.28 10.19L226.28 10.07L231.31 10.07C231.38 10.07 231.42 10.05 231.45 10.01C231.48 9.97 231.50 9.90 231.50 9.80C231.50 9.31 231.43 8.88 231.29 8.50C231.15 8.12 230.97 7.78 230.72 7.53C230.48 7.28 230.19 7.08 229.85 6.94C229.52 6.80 229.15 6.73 228.76 6.73ZM228.77 7.24C229.10 7.24 229.38 7.29 229.64 7.41C229.91 7.52 230.13 7.67 230.31 7.88C230.50 8.09 230.65 8.33 230.75 8.62C230.85 8.92 230.90 9.25 230.90 9.63L226.31 9.63C226.35 9.27 226.44 8.93 226.56 8.64C226.69 8.34 226.86 8.09 227.07 7.88C227.28 7.67 227.53 7.52 227.81 7.41C228.09 7.29 228.41 7.24 228.77 7.24ZM246.33 13.54C246.33 13.38 246.25 13.30 246.06 13.29L245.99 13.29L245.90 13.29C245.85 13.29 245.78 13.27 245.70 13.27L245.39 13.27L245.39 3.63L244.73 3.63L243.73 3.63L243.73 3.91C243.73 4.06 243.82 4.14 244.01 4.16L244.08 4.16C244.10 4.16 244.13 4.17 244.17 4.17L244.40 4.17C244.50 4.17 244.61 4.19 244.73 4.19L244.73 7.76C244.48 7.42 244.19 7.17 243.84 7.00C243.49 6.82 243.08 6.73 242.61 6.73C242.12 6.73 241.68 6.83 241.30 7.01C240.93 7.20 240.62 7.46 240.35 7.78C240.09 8.11 239.90 8.50 239.76 8.93C239.62 9.37 239.57 9.84 239.57 10.35C239.57 11.54 239.81 12.43 240.28 13.02C240.76 13.61 241.43 13.90 242.28 13.90C242.80 13.90 243.26 13.79 243.68 13.54C244.10 13.29 244.45 12.95 244.76 12.53L244.83 13.64C244.85 13.76 244.92 13.82 245.03 13.82L245.39 13.82L246.33 13.82L246.33 13.61ZM244.73 12.01C244.44 12.43 244.10 12.77 243.73 13.01C243.35 13.24 242.94 13.37 242.48 13.37C241.77 13.37 241.21 13.13 240.83 12.64C240.45 12.15 240.25 11.38 240.25 10.35C240.25 9.88 240.30 9.48 240.41 9.10C240.52 8.72 240.67 8.39 240.88 8.12C241.09 7.85 241.35 7.63 241.65 7.48C241.96 7.32 242.33 7.25 242.73 7.25C243.14 7.25 243.52 7.34 243.84 7.50C244.16 7.67 244.47 7.95 244.73 8.34ZM265.86 4.89C265.92 4.94 265.99 4.98 266.06 5.01C266.13 5.04 266.21 5.07 266.29 5.07C266.38 5.07 266.46 5.04 266.53 5.01C266.60 4.98 266.67 4.94 266.73 4.89C266.78 4.83 266.84 4.76 266.87 4.69C266.90 4.62 266.92 4.54 266.92 4.45C266.92 4.37 266.90 4.30 266.87 4.21C266.84 4.14 266.78 4.07 266.73 4.02C266.67 3.96 266.60 3.91 266.53 3.88C266.46 3.85 266.38 3.84 266.29 3.84C266.21 3.84 266.13 3.85 266.06 3.88C265.99 3.91 265.92 3.96 265.86 4.02C265.80 4.07 265.76 4.14 265.73 4.21C265.71 4.28 265.68 4.37 265.68 4.45C265.68 4.54 265.71 4.62 265.73 4.69C265.76 4.76 265.80 4.83 265.86 4.89ZM267.36 13.29L267.29 13.29L267.18 13.29C267.13 13.29 267.06 13.27 266.97 13.27C266.87 13.27 266.76 13.26 266.63 13.26L266.63 6.85L265.96 6.85L264.95 6.85L264.95 7.13C264.95 7.28 265.05 7.36 265.23 7.38L265.30 7.38C265.33 7.38 265.37 7.39 265.41 7.39L265.62 7.39C265.72 7.39 265.83 7.41 265.96 7.41L265.96 13.26C265.80 13.26 265.66 13.29 265.55 13.29L265.31 13.29L265.23 13.29C265.05 13.30 264.95 13.38 264.95 13.54L264.95 13.82L265.96 13.82L266.63 13.82L267.64 13.82L267.64 13.54C267.64 13.38 267.54 13.30 267.36 13.29ZM278.11 13.93C278.40 13.93 278.68 13.86 278.96 13.75C279.23 13.64 279.45 13.48 279.64 13.29L279.45 12.98C279.41 12.94 279.38 12.92 279.34 12.92C279.31 12.92 279.26 12.94 279.20 12.99C279.15 13.05 279.08 13.09 278.99 13.15C278.91 13.20 278.80 13.26 278.67 13.31C278.54 13.37 278.42 13.38 278.25 13.38C278.11 13.38 277.97 13.36 277.86 13.31C277.75 13.27 277.65 13.20 277.56 13.12C277.48 13.03 277.41 12.92 277.35 12.78C277.30 12.64 277.28 12.49 277.28 12.29L277.28 7.57L279.48 7.57L279.48 7.07L277.28 7.07L277.28 4.41L276.96 4.41C276.91 4.41 276.88 4.44 276.85 4.47C276.82 4.49 276.79 4.54 276.79 4.58L276.63 7.07L275.44 7.15L275.44 7.41C275.44 7.46 275.45 7.49 275.48 7.52C275.51 7.55 275.56 7.57 275.62 7.57L276.61 7.57L276.61 12.33C276.61 12.88 276.74 13.27 277.00 13.54C277.27 13.80 277.63 13.93 278.11 13.93Z"></path></g></svg>