<svg data-v-423bf9ae="" xmlns="http://www.w3.org/2000/svg" viewBox="0 0 235.47648805388496 60" class="font"><!----><!----><!----><g data-v-423bf9ae="" id="90664a9f-2f15-4c25-a1a1-639ecc3d896b" fill="white" transform="matrix(5.44997732156018,0,0,5.44997732156018,-2.4524896537798355,-0.34487348263017026)"><path d="M0.91 10.64L0.91 10.64L2.76 10.64C4.79 10.64 5.99 9.16 5.99 7.36L5.99 0.81C5.99 0.56 5.78 0.35 5.53 0.35C5.26 0.35 5.05 0.56 5.05 0.81L5.05 7.36C5.05 8.65 4.23 9.72 2.76 9.70L0.91 9.70C0.66 9.70 0.45 9.91 0.45 10.18C0.45 10.43 0.66 10.64 0.91 10.64ZM3.19 7.36L3.19 7.36C3.19 7.64 2.97 7.83 2.70 7.83L1.05 7.83C0.78 7.83 0.57 8.04 0.57 8.30C0.57 8.55 0.78 8.76 1.05 8.76L2.70 8.76C3.49 8.76 4.12 8.16 4.12 7.36L4.12 0.81C4.12 0.56 3.91 0.35 3.65 0.35C3.40 0.35 3.19 0.56 3.19 0.81ZM10.92 7.84L10.92 7.84L12.28 7.84C12.54 7.84 12.77 7.63 12.77 7.36C12.77 7.29 12.75 7.24 12.73 7.18L12.04 5.50C11.94 5.28 11.68 5.17 11.42 5.26C11.20 5.35 11.09 5.63 11.17 5.87L11.59 6.90L10.92 6.90C10.67 6.90 10.46 7.10 10.46 7.36C10.46 7.63 10.67 7.84 10.92 7.84ZM10.23 10.26L10.23 10.26L10.47 9.72L12.74 9.72L12.96 10.26C13.06 10.51 13.34 10.61 13.58 10.53C13.82 10.42 13.92 10.15 13.83 9.91L13.50 9.10C13.44 8.92 13.26 8.76 13.05 8.76L10.15 8.76L10.15 8.76C9.98 8.76 9.80 8.89 9.72 9.06L9.38 9.91C9.28 10.15 9.39 10.42 9.63 10.53C9.88 10.61 10.15 10.50 10.23 10.26ZM8.23 10.26L8.23 10.26L11.61 1.76L14.98 10.26C15.08 10.50 15.36 10.61 15.60 10.53C15.83 10.42 15.95 10.15 15.85 9.91L12.04 0.36C12.00 0.25 11.91 0.14 11.77 0.10C11.55 0 11.27 0.11 11.17 0.36L7.35 9.91C7.27 10.15 7.39 10.42 7.62 10.53C7.85 10.61 8.12 10.50 8.23 10.26ZM18.21 10.18L18.21 10.18L18.21 0.81C18.21 0.56 18.02 0.36 17.75 0.36C17.50 0.36 17.29 0.56 17.29 0.81L17.29 10.18C17.29 10.43 17.50 10.65 17.75 10.65C18.02 10.65 18.21 10.43 18.21 10.18ZM25.86 10.18L25.86 10.18L25.86 0.81C25.86 0.56 25.65 0.36 25.38 0.36C25.13 0.36 24.92 0.56 24.92 0.81L24.92 10.18C24.92 10.43 25.13 10.65 25.38 10.65C25.65 10.65 25.86 10.43 25.86 10.18ZM24.08 9.91L24.08 9.91L20.01 4.09C19.87 3.86 19.56 3.81 19.36 3.98C19.22 4.06 19.17 4.20 19.17 4.35L19.17 10.18C19.17 10.43 19.36 10.64 19.61 10.64C19.88 10.64 20.09 10.43 20.09 10.18L20.09 5.84L23.31 10.44C23.46 10.65 23.74 10.71 23.97 10.57C24.16 10.40 24.22 10.12 24.08 9.91ZM19.07 1.09L19.07 1.09L23.13 6.92C23.28 7.13 23.56 7.18 23.77 7.03C23.91 6.94 23.98 6.79 23.98 6.64L23.98 0.81C23.98 0.56 23.77 0.36 23.52 0.36C23.27 0.36 23.04 0.56 23.04 0.81L23.04 5.17L19.82 0.56C19.68 0.35 19.39 0.28 19.18 0.45C18.97 0.59 18.91 0.87 19.07 1.09ZM33.42 2.23L33.42 2.23L30.45 2.23C30.18 2.23 29.97 2.42 29.97 2.69L29.97 4.56C29.97 4.82 30.18 5.03 30.45 5.03L32.55 5.03C32.82 5.03 33.03 4.82 33.03 4.56C33.03 4.30 32.82 4.09 32.55 4.09L30.91 4.09L30.91 3.15L33.42 3.15C33.68 3.15 33.89 2.94 33.89 2.69C33.89 2.42 33.68 2.23 33.42 2.23ZM32.55 5.96L32.55 5.96L30.45 5.96C30.18 5.96 29.97 6.17 29.97 6.43L29.97 8.30C29.97 8.55 30.18 8.76 30.45 8.76L33.42 8.76C33.68 8.76 33.89 8.55 33.89 8.30C33.89 8.04 33.68 7.83 33.42 7.83L30.91 7.83L30.91 6.90L32.55 6.90C32.82 6.90 33.03 6.69 33.03 6.43C33.03 6.17 32.82 5.96 32.55 5.96ZM33.42 9.70L33.42 9.70L29.05 9.70L29.05 1.29L33.42 1.29C33.68 1.29 33.89 1.08 33.89 0.81C33.89 0.56 33.68 0.35 33.42 0.35L28.57 0.35C28.32 0.35 28.11 0.56 28.11 0.81L28.11 10.18C28.11 10.43 28.32 10.64 28.57 10.64L33.42 10.64C33.68 10.64 33.89 10.43 33.89 10.18C33.89 9.91 33.68 9.70 33.42 9.70ZM36.90 0.99L36.90 0.99L38.77 5.60C38.93 5.98 39.48 5.98 39.63 5.60L41.52 0.99C41.61 0.74 41.50 0.49 41.26 0.38C41.02 0.29 40.74 0.41 40.66 0.64L39.21 4.19L37.76 0.64C37.66 0.41 37.39 0.29 37.14 0.38C36.92 0.49 36.79 0.74 36.90 0.99ZM42.77 0.64L42.77 0.64L39.21 9.38L35.64 0.64C35.55 0.41 35.28 0.29 35.04 0.38C34.79 0.49 34.69 0.74 34.78 0.99L38.77 10.78C38.93 11.17 39.47 11.17 39.63 10.78L43.62 0.99C43.72 0.74 43.61 0.49 43.37 0.38C43.15 0.29 42.87 0.41 42.77 0.64Z"></path></g><!----><!----></svg>