<svg data-v-423bf9ae="" xmlns="http://www.w3.org/2000/svg" viewBox="0 0 356 90" class="iconLeftSlogan"><!----><!----><!----><g data-v-423bf9ae="" id="0308ee23-5d06-4625-93a4-bbfec708aa79" fill="black" transform="matrix(5.44997732156018,0,0,5.44997732156018,117.62968655471626,-0.34487348263017026)"><path d="M0.91 10.64L0.91 10.64L2.76 10.64C4.79 10.64 5.99 9.16 5.99 7.36L5.99 0.81C5.99 0.56 5.78 0.35 5.53 0.35C5.26 0.35 5.05 0.56 5.05 0.81L5.05 7.36C5.05 8.65 4.23 9.72 2.76 9.70L0.91 9.70C0.66 9.70 0.45 9.91 0.45 10.18C0.45 10.43 0.66 10.64 0.91 10.64ZM3.19 7.36L3.19 7.36C3.19 7.64 2.97 7.83 2.70 7.83L1.05 7.83C0.78 7.83 0.57 8.04 0.57 8.30C0.57 8.55 0.78 8.76 1.05 8.76L2.70 8.76C3.49 8.76 4.12 8.16 4.12 7.36L4.12 0.81C4.12 0.56 3.91 0.35 3.65 0.35C3.40 0.35 3.19 0.56 3.19 0.81ZM10.92 7.84L10.92 7.84L12.28 7.84C12.54 7.84 12.77 7.63 12.77 7.36C12.77 7.29 12.75 7.24 12.73 7.18L12.04 5.50C11.94 5.28 11.68 5.17 11.42 5.26C11.20 5.35 11.09 5.63 11.17 5.87L11.59 6.90L10.92 6.90C10.67 6.90 10.46 7.10 10.46 7.36C10.46 7.63 10.67 7.84 10.92 7.84ZM10.23 10.26L10.23 10.26L10.47 9.72L12.74 9.72L12.96 10.26C13.06 10.51 13.34 10.61 13.58 10.53C13.82 10.42 13.92 10.15 13.83 9.91L13.50 9.10C13.44 8.92 13.26 8.76 13.05 8.76L10.15 8.76L10.15 8.76C9.98 8.76 9.80 8.89 9.72 9.06L9.38 9.91C9.28 10.15 9.39 10.42 9.63 10.53C9.88 10.61 10.15 10.50 10.23 10.26ZM8.23 10.26L8.23 10.26L11.61 1.76L14.98 10.26C15.08 10.50 15.36 10.61 15.60 10.53C15.83 10.42 15.95 10.15 15.85 9.91L12.04 0.36C12.00 0.25 11.91 0.14 11.77 0.10C11.55 0 11.27 0.11 11.17 0.36L7.35 9.91C7.27 10.15 7.39 10.42 7.62 10.53C7.85 10.61 8.12 10.50 8.23 10.26ZM18.21 10.18L18.21 10.18L18.21 0.81C18.21 0.56 18.02 0.36 17.75 0.36C17.50 0.36 17.29 0.56 17.29 0.81L17.29 10.18C17.29 10.43 17.50 10.65 17.75 10.65C18.02 10.65 18.21 10.43 18.21 10.18ZM25.86 10.18L25.86 10.18L25.86 0.81C25.86 0.56 25.65 0.36 25.38 0.36C25.13 0.36 24.92 0.56 24.92 0.81L24.92 10.18C24.92 10.43 25.13 10.65 25.38 10.65C25.65 10.65 25.86 10.43 25.86 10.18ZM24.08 9.91L24.08 9.91L20.01 4.09C19.87 3.86 19.56 3.81 19.36 3.98C19.22 4.06 19.17 4.20 19.17 4.35L19.17 10.18C19.17 10.43 19.36 10.64 19.61 10.64C19.88 10.64 20.09 10.43 20.09 10.18L20.09 5.84L23.31 10.44C23.46 10.65 23.74 10.71 23.97 10.57C24.16 10.40 24.22 10.12 24.08 9.91ZM19.07 1.09L19.07 1.09L23.13 6.92C23.28 7.13 23.56 7.18 23.77 7.03C23.91 6.94 23.98 6.79 23.98 6.64L23.98 0.81C23.98 0.56 23.77 0.36 23.52 0.36C23.27 0.36 23.04 0.56 23.04 0.81L23.04 5.17L19.82 0.56C19.68 0.35 19.39 0.28 19.18 0.45C18.97 0.59 18.91 0.87 19.07 1.09ZM33.42 2.23L33.42 2.23L30.45 2.23C30.18 2.23 29.97 2.42 29.97 2.69L29.97 4.56C29.97 4.82 30.18 5.03 30.45 5.03L32.55 5.03C32.82 5.03 33.03 4.82 33.03 4.56C33.03 4.30 32.82 4.09 32.55 4.09L30.91 4.09L30.91 3.15L33.42 3.15C33.68 3.15 33.89 2.94 33.89 2.69C33.89 2.42 33.68 2.23 33.42 2.23ZM32.55 5.96L32.55 5.96L30.45 5.96C30.18 5.96 29.97 6.17 29.97 6.43L29.97 8.30C29.97 8.55 30.18 8.76 30.45 8.76L33.42 8.76C33.68 8.76 33.89 8.55 33.89 8.30C33.89 8.04 33.68 7.83 33.42 7.83L30.91 7.83L30.91 6.90L32.55 6.90C32.82 6.90 33.03 6.69 33.03 6.43C33.03 6.17 32.82 5.96 32.55 5.96ZM33.42 9.70L33.42 9.70L29.05 9.70L29.05 1.29L33.42 1.29C33.68 1.29 33.89 1.08 33.89 0.81C33.89 0.56 33.68 0.35 33.42 0.35L28.57 0.35C28.32 0.35 28.11 0.56 28.11 0.81L28.11 10.18C28.11 10.43 28.32 10.64 28.57 10.64L33.42 10.64C33.68 10.64 33.89 10.43 33.89 10.18C33.89 9.91 33.68 9.70 33.42 9.70ZM36.90 0.99L36.90 0.99L38.77 5.60C38.93 5.98 39.48 5.98 39.63 5.60L41.52 0.99C41.61 0.74 41.50 0.49 41.26 0.38C41.02 0.29 40.74 0.41 40.66 0.64L39.21 4.19L37.76 0.64C37.66 0.41 37.39 0.29 37.14 0.38C36.92 0.49 36.79 0.74 36.90 0.99ZM42.77 0.64L42.77 0.64L39.21 9.38L35.64 0.64C35.55 0.41 35.28 0.29 35.04 0.38C34.79 0.49 34.69 0.74 34.78 0.99L38.77 10.78C38.93 11.17 39.47 11.17 39.63 10.78L43.62 0.99C43.72 0.74 43.61 0.49 43.37 0.38C43.15 0.29 42.87 0.41 42.77 0.64Z"></path></g><!----><g data-v-423bf9ae="" id="e5112fa3-a0ea-40ee-9e1b-6ff32cc2995c" transform="matrix(1.6642628762444607,0,0,1.6642628762444607,-33.555593633281646,-36.94525081751462)" stroke="none" fill="black"><path d="M80.281 44.81l-2.42-3.237-.076-3.554 2.28-3.338a1 1 0 0 0-.03-1.169l-1.897-2.498a.998.998 0 0 0-1.118-.342l-3.825 1.3-3.404-1.022-2.47-3.202a1.002 1.002 0 0 0-1.122-.334l-2.963 1.033a1 1 0 0 0-.67.958l.055 4.035-2.03 2.928-3.804 1.358a1 1 0 0 0-.664.963l.067 3.138a1 1 0 0 0 .705.933l3.858 1.196 2.153 2.838.116 4.034a1 1 0 0 0 .711.928l3.004.906a1.004 1.004 0 0 0 1.107-.38l2.332-3.306 3.357-1.167 3.876 1.137c.411.12.857-.035 1.103-.39l1.79-2.577a1 1 0 0 0-.02-1.17zm-3 2.014L73.787 45.8a1.003 1.003 0 0 0-.61.015l-3.962 1.378a1.004 1.004 0 0 0-.49.368l-2.101 2.978-1.624-.49-.105-3.633a1.006 1.006 0 0 0-.203-.576l-2.54-3.349a.998.998 0 0 0-.502-.35l-3.476-1.078-.036-1.696 3.427-1.224c.198-.07.368-.2.487-.372l2.394-3.454c.118-.171.18-.375.178-.584l-.05-3.634 1.602-.559 2.226 2.886a1 1 0 0 0 .504.347l4.019 1.207c.201.06.413.057.61-.01l3.445-1.173 1.026 1.35-2.055 3.009a1.005 1.005 0 0 0-.174.585l.09 4.195c.004.209.073.41.198.578l2.182 2.916-.968 1.394z"></path><path d="M68.837 36.07a3.921 3.921 0 0 0-3.832 3.999 3.89 3.89 0 0 0 1.206 2.744 3.89 3.89 0 0 0 2.708 1.09l.085-.001a3.923 3.923 0 0 0 3.833-4 3.895 3.895 0 0 0-1.206-2.744 3.909 3.909 0 0 0-2.794-1.088zm.124 5.832a1.927 1.927 0 0 1-1.956-1.875 1.918 1.918 0 0 1 1.875-1.957h.042c.496 0 .966.187 1.325.532.37.354.58.831.59 1.343a1.92 1.92 0 0 1-1.876 1.957zM50.862 52.39a1 1 0 0 0 1.187-.447l3.014-5.221a1 1 0 0 0-.206-1.251l-3.53-3.105-.205-3.989 3.485-3.064a1 1 0 0 0 .206-1.25L51.8 28.84a1 1 0 0 0-1.187-.447l-4.425 1.497-3.632-2.097-.915-4.494a1 1 0 0 0-.98-.8h-6.03a1 1 0 0 0-.979.8l-.915 4.494-3.632 2.097-4.425-1.497a1 1 0 0 0-1.187.447l-3.014 5.221a1 1 0 0 0 .206 1.251l3.508 3.084v4.192l-3.508 3.084a1 1 0 0 0-.206 1.251l3.014 5.222a1 1 0 0 0 1.187.447l4.425-1.497 3.63 2.096.916 4.58a1 1 0 0 0 .98.805h6.03a1 1 0 0 0 .98-.804l.918-4.586 3.883-2.291 4.421 1.495zm-5.042-3.45l-4.663 2.75a1 1 0 0 0-.472.666l-.844 4.22h-4.39l-.845-4.22a1.002 1.002 0 0 0-.48-.67l-4.414-2.548a1.005 1.005 0 0 0-.82-.081l-4.078 1.379-2.194-3.802 3.233-2.842a1 1 0 0 0 .34-.75v-5.097a1 1 0 0 0-.34-.751l-3.233-2.841 2.194-3.802 4.078 1.38c.273.09.57.06.82-.082l4.414-2.548a1 1 0 0 0 .48-.667l.841-4.134h4.397l.842 4.134a1 1 0 0 0 .479.667l4.414 2.548c.248.143.548.173.82.081l4.078-1.38 2.194 3.803-3.233 2.84a1 1 0 0 0-.338.803l.25 4.894c.013.27.135.522.338.7l3.233 2.842-2.194 3.801-4.079-1.379a1 1 0 0 0-.828.086z"></path><path d="M37.77 33.809a6.737 6.737 0 0 0-6.729 6.73c0 3.71 3.019 6.73 6.73 6.73s6.729-3.02 6.729-6.73c0-3.711-3.019-6.73-6.73-6.73zm0 11.46c-2.607 0-4.729-2.123-4.729-4.73s2.122-4.73 4.73-4.73 4.729 2.122 4.729 4.73-2.122 4.73-4.73 4.73zM67.62 65.322l-.12-2.343 2.191-1.926a1 1 0 0 0 .206-1.251l-2-3.466a1 1 0 0 0-1.187-.447l-2.793.944-2.147-1.24-.578-2.833a1 1 0 0 0-.98-.8h-4.001a1 1 0 0 0-.98.8l-.577 2.834-2.148 1.24-2.793-.945a1 1 0 0 0-1.187.447l-2 3.466a1 1 0 0 0 .205 1.25L48.946 63v2.477l-2.215 1.947a1 1 0 0 0-.206 1.25l2.001 3.467c.239.412.736.598 1.187.447l2.793-.945 2.146 1.238.578 2.892a1 1 0 0 0 .98.804h4.003a1 1 0 0 0 .98-.804l.58-2.897 2.315-1.366 2.788.943a1 1 0 0 0 1.187-.447l2-3.466a1 1 0 0 0-.206-1.25l-2.237-1.968zm-.88 4.974l-2.445-.827a1 1 0 0 0-.828.086l-3.095 1.825a1 1 0 0 0-.473.665l-.505 2.532H57.03l-.506-2.532a1.002 1.002 0 0 0-.48-.67l-2.93-1.69a1.005 1.005 0 0 0-.82-.081l-2.445.827-1.181-2.046 1.938-1.704a1 1 0 0 0 .34-.751v-3.383a1 1 0 0 0-.34-.751l-1.938-1.704 1.18-2.046 2.446.827c.272.092.571.062.82-.081l2.93-1.691a1 1 0 0 0 .48-.667l.503-2.475h2.37l.503 2.475c.057.28.232.523.48.666l2.929 1.692a.998.998 0 0 0 .82.081l2.445-.827 1.18 2.046-1.938 1.704a1 1 0 0 0-.338.802l.166 3.248a.997.997 0 0 0 .338.7l1.939 1.704-1.18 2.046z"></path><path d="M58.294 60.25c-2.215 0-4.018 1.803-4.018 4.018s1.803 4.018 4.018 4.018c2.216 0 4.019-1.803 4.019-4.018s-1.803-4.018-4.02-4.018zm0 6.036c-1.112 0-2.018-.905-2.018-2.018s.906-2.018 2.018-2.018c1.113 0 2.019.905 2.019 2.018s-.906 2.018-2.02 2.018z"></path></g><!----><g data-v-423bf9ae="" id="7d0a84ee-e17e-4922-b30c-72619836a044" fill="black" transform="matrix(0.6058246761466063,0,0,0.6058246761466063,119.59751191844836,57.70392444164471)"><path d="M6.43 9.91C6.29 9.65 6.09 9.39 5.85 9.21C5.61 9.03 5.36 8.88 5.07 8.75C4.77 8.62 4.45 8.51 4.14 8.41C3.84 8.32 3.53 8.20 3.23 8.11C2.94 7.99 2.67 7.87 2.44 7.71C2.20 7.56 2.02 7.38 1.88 7.15C1.74 6.93 1.65 6.65 1.65 6.31C1.65 6.06 1.71 5.82 1.81 5.59C1.90 5.35 2.04 5.15 2.23 4.97C2.41 4.79 2.63 4.65 2.91 4.55C3.19 4.45 3.50 4.40 3.86 4.40C4.54 4.40 5.15 4.51 5.71 4.75C5.75 5.54 5.78 5.99 5.78 6.06C5.80 6.29 5.88 6.41 6.08 6.41L6.41 6.41L6.41 4.38C5.53 4.00 4.69 3.81 3.86 3.81C3.40 3.81 3.00 3.88 2.63 4.02C2.27 4.16 1.97 4.34 1.74 4.58C1.50 4.82 1.30 5.08 1.18 5.39C1.05 5.70 0.99 6.02 0.99 6.36C0.99 6.78 1.06 7.14 1.20 7.42C1.34 7.70 1.54 7.92 1.78 8.12C2.02 8.32 2.27 8.46 2.56 8.58C2.86 8.71 3.18 8.82 3.49 8.92C3.79 9.02 4.09 9.11 4.40 9.21C4.69 9.31 4.96 9.45 5.19 9.60C5.43 9.76 5.61 9.94 5.75 10.16C5.89 10.39 5.96 10.68 5.96 11.03C5.96 11.35 5.91 11.66 5.80 11.94C5.68 12.22 5.53 12.46 5.32 12.67C5.11 12.88 4.84 13.05 4.54 13.16C4.23 13.29 3.88 13.33 3.49 13.33C2.70 13.33 2.04 13.20 1.51 12.95C1.50 12.75 1.50 12.54 1.48 12.32C1.47 12.10 1.47 11.91 1.46 11.76C1.44 11.61 1.44 11.52 1.44 11.51C1.43 11.28 1.33 11.17 1.13 11.17L0.80 11.17L0.80 13.02L0.80 13.20L0.80 13.38C1.65 13.75 2.53 13.93 3.46 13.93C3.96 13.93 4.41 13.85 4.80 13.69C5.19 13.54 5.53 13.31 5.80 13.05C6.06 12.78 6.29 12.46 6.43 12.10C6.57 11.73 6.64 11.34 6.64 10.92C6.64 10.51 6.57 10.18 6.43 9.91ZM24.19 13.22L23.73 13.17L19.95 3.91L19.24 3.91L15.44 13.17L14.99 13.22C14.81 13.23 14.73 13.33 14.73 13.50L14.73 13.82L15.18 13.82L15.47 13.82L15.72 13.82L15.82 13.82L17.14 13.82L17.14 13.50C17.14 13.31 17.02 13.23 16.81 13.22C16.80 13.22 16.77 13.20 16.73 13.20C16.69 13.20 16.63 13.19 16.53 13.19C16.44 13.19 16.31 13.19 16.17 13.17L17.15 10.75L17.22 10.57L21.95 10.57L22.02 10.75L23.00 13.17C22.86 13.19 22.75 13.19 22.65 13.19C22.55 13.19 22.48 13.20 22.44 13.20C22.40 13.20 22.37 13.22 22.36 13.22C22.15 13.23 22.04 13.31 22.04 13.50L22.04 13.82L23.35 13.82L23.45 13.82L23.72 13.82L24.00 13.82L24.46 13.82L24.46 13.50C24.46 13.33 24.37 13.23 24.19 13.22ZM19.39 5.22C19.42 5.14 19.46 5.04 19.49 4.94C19.52 4.84 19.56 4.75 19.59 4.63C19.61 4.75 19.66 4.84 19.68 4.94C19.71 5.04 19.75 5.12 19.78 5.21L21.74 10.04L17.44 10.04ZM38.92 4.68C38.33 4.17 37.45 3.92 36.29 3.92L33.88 3.92L32.69 3.92L32.69 4.19C32.69 4.34 32.79 4.42 32.97 4.44L33.11 4.44C33.18 4.44 33.28 4.45 33.42 4.45C33.56 4.45 33.71 4.47 33.88 4.47L33.88 13.26C33.71 13.26 33.56 13.27 33.42 13.27C33.28 13.27 33.18 13.29 33.11 13.29L32.97 13.29C32.79 13.30 32.69 13.38 32.69 13.54L32.69 13.82L33.88 13.82L34.59 13.82L35.77 13.82L35.77 13.54C35.77 13.38 35.67 13.30 35.49 13.29L35.36 13.29C35.29 13.29 35.18 13.27 35.04 13.27C34.90 13.27 34.76 13.26 34.59 13.26L34.59 9.83L36.29 9.83C36.83 9.83 37.32 9.74 37.76 9.60C38.19 9.45 38.56 9.25 38.86 8.99C39.17 8.72 39.41 8.41 39.56 8.05C39.73 7.69 39.80 7.29 39.80 6.86C39.80 5.92 39.51 5.18 38.92 4.68ZM38.89 7.81C38.77 8.11 38.58 8.36 38.35 8.57C38.11 8.78 37.81 8.95 37.46 9.07C37.11 9.20 36.72 9.25 36.29 9.25L34.59 9.25L34.59 4.48L36.29 4.48C37.21 4.48 37.91 4.69 38.39 5.10C38.85 5.50 39.09 6.09 39.09 6.85C39.09 7.20 39.02 7.52 38.89 7.81ZM46.70 13.23C46.70 13.41 46.75 13.57 46.86 13.68C46.97 13.79 47.12 13.85 47.29 13.85L47.40 13.85C47.43 13.85 47.46 13.83 47.49 13.82C47.47 13.99 47.43 14.14 47.38 14.29C47.32 14.45 47.25 14.57 47.18 14.70C47.11 14.83 47.04 14.94 46.97 15.02C46.90 15.11 46.83 15.19 46.79 15.23C46.77 15.25 46.76 15.27 46.75 15.30C46.73 15.33 46.72 15.33 46.72 15.36C46.72 15.40 46.73 15.44 46.77 15.48L46.89 15.58C47.04 15.43 47.19 15.29 47.32 15.11C47.45 14.92 47.56 14.74 47.66 14.55C47.75 14.35 47.81 14.15 47.87 13.96C47.92 13.76 47.94 13.58 47.94 13.38C47.94 13.16 47.88 12.98 47.77 12.84C47.66 12.70 47.50 12.63 47.31 12.63C47.12 12.63 46.98 12.70 46.87 12.81C46.76 12.92 46.70 13.06 46.70 13.23ZM76.26 13.22L75.80 13.17L72.02 3.91L71.30 3.91L67.51 13.17L67.06 13.22C66.88 13.23 66.79 13.33 66.79 13.50L66.79 13.82L67.24 13.82L67.54 13.82L67.79 13.82L67.89 13.82L69.20 13.82L69.20 13.50C69.20 13.31 69.09 13.23 68.88 13.22C68.87 13.22 68.84 13.20 68.80 13.20C68.75 13.20 68.70 13.19 68.60 13.19C68.50 13.19 68.38 13.19 68.24 13.17L69.22 10.75L69.29 10.57L74.02 10.57L74.09 10.75L75.07 13.17C74.93 13.19 74.82 13.19 74.72 13.19C74.62 13.19 74.55 13.20 74.51 13.20C74.47 13.20 74.44 13.22 74.42 13.22C74.21 13.23 74.10 13.31 74.10 13.50L74.10 13.82L75.42 13.82L75.52 13.82L75.78 13.82L76.06 13.82L76.52 13.82L76.52 13.50C76.52 13.33 76.44 13.23 76.26 13.22ZM71.46 5.22C71.48 5.14 71.53 5.04 71.55 4.94C71.58 4.84 71.62 4.75 71.65 4.63C71.68 4.75 71.72 4.84 71.75 4.94C71.78 5.04 71.82 5.12 71.85 5.21L73.81 10.04L69.51 10.04ZM90.48 9.91C90.34 9.65 90.15 9.39 89.91 9.21C89.67 9.03 89.42 8.88 89.12 8.75C88.83 8.62 88.51 8.51 88.20 8.41C87.89 8.32 87.58 8.20 87.29 8.11C87.00 7.99 86.73 7.87 86.49 7.71C86.25 7.56 86.07 7.38 85.93 7.15C85.79 6.93 85.71 6.65 85.71 6.31C85.71 6.06 85.76 5.82 85.86 5.59C85.96 5.35 86.10 5.15 86.28 4.97C86.46 4.79 86.69 4.65 86.97 4.55C87.25 4.45 87.56 4.40 87.92 4.40C88.59 4.40 89.21 4.51 89.77 4.75C89.81 5.54 89.84 5.99 89.84 6.06C89.85 6.29 89.94 6.41 90.13 6.41L90.47 6.41L90.47 4.38C89.59 4.00 88.75 3.81 87.92 3.81C87.46 3.81 87.05 3.88 86.69 4.02C86.32 4.16 86.03 4.34 85.79 4.58C85.55 4.82 85.36 5.08 85.23 5.39C85.11 5.70 85.05 6.02 85.05 6.36C85.05 6.78 85.12 7.14 85.26 7.42C85.40 7.70 85.60 7.92 85.83 8.12C86.07 8.32 86.32 8.46 86.62 8.58C86.91 8.71 87.23 8.82 87.54 8.92C87.85 9.02 88.14 9.11 88.45 9.21C88.75 9.31 89.01 9.45 89.25 9.60C89.49 9.76 89.67 9.94 89.81 10.16C89.95 10.39 90.02 10.68 90.02 11.03C90.02 11.35 89.96 11.66 89.85 11.94C89.74 12.22 89.59 12.46 89.38 12.67C89.17 12.88 88.90 13.05 88.59 13.16C88.28 13.29 87.93 13.33 87.54 13.33C86.76 13.33 86.10 13.20 85.57 12.95C85.55 12.75 85.55 12.54 85.54 12.32C85.53 12.10 85.53 11.91 85.51 11.76C85.50 11.61 85.50 11.52 85.50 11.51C85.48 11.28 85.39 11.17 85.19 11.17L84.85 11.17L84.85 13.02L84.85 13.20L84.85 13.38C85.71 13.75 86.59 13.93 87.51 13.93C88.02 13.93 88.47 13.85 88.86 13.69C89.25 13.54 89.59 13.31 89.85 13.05C90.12 12.78 90.34 12.46 90.48 12.10C90.62 11.73 90.69 11.34 90.69 10.92C90.69 10.51 90.62 10.18 90.48 9.91ZM108.25 13.22L107.79 13.17L104.01 3.91L103.29 3.91L99.50 13.17L99.05 13.22C98.87 13.23 98.78 13.33 98.78 13.50L98.78 13.82L99.23 13.82L99.53 13.82L99.78 13.82L99.88 13.82L101.19 13.82L101.19 13.50C101.19 13.31 101.08 13.23 100.87 13.22C100.86 13.22 100.83 13.20 100.79 13.20C100.74 13.20 100.69 13.19 100.59 13.19C100.49 13.19 100.37 13.19 100.23 13.17L101.21 10.75L101.28 10.57L106.01 10.57L106.08 10.75L107.06 13.17C106.92 13.19 106.81 13.19 106.71 13.19C106.61 13.19 106.54 13.20 106.50 13.20C106.46 13.20 106.43 13.22 106.41 13.22C106.20 13.23 106.09 13.31 106.09 13.50L106.09 13.82L107.41 13.82L107.51 13.82L107.77 13.82L108.05 13.82L108.51 13.82L108.51 13.50C108.51 13.33 108.43 13.23 108.25 13.22ZM103.45 5.22C103.47 5.14 103.52 5.04 103.54 4.94C103.57 4.84 103.61 4.75 103.64 4.63C103.67 4.75 103.71 4.84 103.74 4.94C103.77 5.04 103.81 5.12 103.84 5.21L105.80 10.04L101.50 10.04ZM122.98 4.68C122.39 4.17 121.51 3.92 120.34 3.92L117.94 3.92L116.75 3.92L116.75 4.19C116.75 4.34 116.84 4.42 117.03 4.44L117.17 4.44C117.24 4.44 117.33 4.45 117.47 4.45C117.61 4.45 117.77 4.47 117.94 4.47L117.94 13.26C117.77 13.26 117.61 13.27 117.47 13.27C117.33 13.27 117.24 13.29 117.17 13.29L117.03 13.29C116.84 13.30 116.75 13.38 116.75 13.54L116.75 13.82L117.94 13.82L118.65 13.82L119.83 13.82L119.83 13.54C119.83 13.38 119.73 13.30 119.55 13.29L119.42 13.29C119.35 13.29 119.24 13.27 119.10 13.27C118.96 13.27 118.82 13.26 118.65 13.26L118.65 9.83L120.34 9.83C120.89 9.83 121.38 9.74 121.81 9.60C122.25 9.45 122.61 9.25 122.92 8.99C123.23 8.72 123.47 8.41 123.62 8.05C123.79 7.69 123.86 7.29 123.86 6.86C123.86 5.92 123.56 5.18 122.98 4.68ZM122.95 7.81C122.82 8.11 122.64 8.36 122.40 8.57C122.16 8.78 121.87 8.95 121.52 9.07C121.17 9.20 120.78 9.25 120.34 9.25L118.65 9.25L118.65 4.48L120.34 4.48C121.27 4.48 121.97 4.69 122.44 5.10C122.91 5.50 123.14 6.09 123.14 6.85C123.14 7.20 123.07 7.52 122.95 7.81ZM131.80 4.77L131.96 5.05C131.99 5.11 132.06 5.14 132.13 5.14C132.16 5.14 132.22 5.10 132.30 5.01C132.38 4.93 132.51 4.84 132.66 4.75C132.82 4.65 133.01 4.55 133.24 4.47C133.46 4.38 133.73 4.35 134.04 4.35C134.27 4.35 134.51 4.38 134.74 4.45C134.96 4.52 135.14 4.63 135.31 4.77C135.48 4.91 135.62 5.08 135.72 5.28C135.81 5.47 135.86 5.70 135.86 5.95C135.86 6.26 135.80 6.54 135.69 6.76C135.58 6.99 135.44 7.18 135.27 7.36C135.10 7.53 134.93 7.70 134.74 7.84C134.54 7.98 134.36 8.12 134.19 8.26C134.02 8.40 133.90 8.54 133.78 8.68C133.67 8.82 133.62 8.99 133.62 9.18L133.62 9.21L133.64 10.42L134.09 10.42L134.18 9.27C134.19 9.11 134.26 8.96 134.37 8.83C134.48 8.71 134.64 8.57 134.81 8.44C134.97 8.32 135.16 8.18 135.35 8.02C135.55 7.88 135.74 7.71 135.91 7.52C136.08 7.32 136.21 7.10 136.32 6.85C136.43 6.59 136.49 6.27 136.49 5.92C136.49 5.60 136.42 5.31 136.29 5.04C136.16 4.77 136.00 4.55 135.77 4.37C135.55 4.19 135.31 4.05 135.02 3.95C134.72 3.85 134.41 3.79 134.09 3.79C133.83 3.79 133.59 3.82 133.36 3.88C133.14 3.93 132.94 4.02 132.75 4.10C132.55 4.19 132.37 4.30 132.22 4.41C132.06 4.52 131.92 4.65 131.80 4.77ZM133.21 13.29C133.21 13.47 133.27 13.61 133.39 13.73C133.52 13.86 133.67 13.93 133.85 13.93C133.94 13.93 134.02 13.90 134.11 13.87C134.19 13.85 134.26 13.79 134.32 13.73C134.37 13.68 134.43 13.62 134.46 13.54C134.48 13.45 134.50 13.38 134.50 13.29C134.50 13.20 134.48 13.12 134.46 13.03C134.43 12.95 134.37 12.88 134.32 12.82C134.26 12.77 134.19 12.71 134.11 12.68C134.02 12.66 133.94 12.63 133.85 12.63C133.76 12.63 133.69 12.66 133.60 12.68C133.53 12.71 133.45 12.77 133.39 12.82C133.34 12.88 133.28 12.95 133.25 13.03C133.22 13.12 133.21 13.20 133.21 13.29ZM160.90 9.91C160.76 9.65 160.57 9.39 160.33 9.21C160.09 9.03 159.84 8.88 159.54 8.75C159.25 8.62 158.93 8.51 158.62 8.41C158.31 8.32 158.00 8.20 157.71 8.11C157.42 7.99 157.15 7.87 156.91 7.71C156.67 7.56 156.49 7.38 156.35 7.15C156.21 6.93 156.13 6.65 156.13 6.31C156.13 6.06 156.18 5.82 156.28 5.59C156.38 5.35 156.52 5.15 156.70 4.97C156.88 4.79 157.11 4.65 157.39 4.55C157.67 4.45 157.98 4.40 158.34 4.40C159.01 4.40 159.63 4.51 160.19 4.75C160.23 5.54 160.26 5.99 160.26 6.06C160.27 6.29 160.36 6.41 160.55 6.41L160.89 6.41L160.89 4.38C160.01 4.00 159.17 3.81 158.34 3.81C157.88 3.81 157.47 3.88 157.11 4.02C156.74 4.16 156.45 4.34 156.21 4.58C155.97 4.82 155.78 5.08 155.65 5.39C155.53 5.70 155.47 6.02 155.47 6.36C155.47 6.78 155.54 7.14 155.68 7.42C155.82 7.70 156.02 7.92 156.25 8.12C156.49 8.32 156.74 8.46 157.04 8.58C157.33 8.71 157.65 8.82 157.96 8.92C158.27 9.02 158.56 9.11 158.87 9.21C159.17 9.31 159.43 9.45 159.67 9.60C159.91 9.76 160.09 9.94 160.23 10.16C160.37 10.39 160.44 10.68 160.44 11.03C160.44 11.35 160.38 11.66 160.27 11.94C160.16 12.22 160.01 12.46 159.80 12.67C159.59 12.88 159.32 13.05 159.01 13.16C158.70 13.29 158.35 13.33 157.96 13.33C157.18 13.33 156.52 13.20 155.99 12.95C155.97 12.75 155.97 12.54 155.96 12.32C155.95 12.10 155.95 11.91 155.93 11.76C155.92 11.61 155.92 11.52 155.92 11.51C155.90 11.28 155.81 11.17 155.61 11.17L155.27 11.17L155.27 13.02L155.27 13.20L155.27 13.38C156.13 13.75 157.01 13.93 157.93 13.93C158.44 13.93 158.89 13.85 159.28 13.69C159.67 13.54 160.01 13.31 160.27 13.05C160.54 12.78 160.76 12.46 160.90 12.10C161.04 11.73 161.11 11.34 161.11 10.92C161.11 10.51 161.04 10.18 160.90 9.91ZM174.97 13.29L174.87 13.29L174.65 13.29C174.55 13.29 174.44 13.27 174.33 13.27L174.33 9.28C174.33 8.89 174.29 8.55 174.19 8.23C174.09 7.91 173.95 7.64 173.77 7.42C173.59 7.20 173.35 7.03 173.07 6.92C172.79 6.79 172.47 6.73 172.09 6.73C171.58 6.73 171.14 6.83 170.73 7.01C170.32 7.20 169.95 7.48 169.58 7.84L169.69 8.05C169.74 8.13 169.81 8.18 169.90 8.18C169.97 8.18 170.07 8.12 170.17 8.02C170.27 7.92 170.41 7.84 170.58 7.73C170.74 7.62 170.93 7.52 171.16 7.42C171.40 7.32 171.68 7.28 172.02 7.28C172.56 7.28 172.98 7.45 173.26 7.80C173.54 8.15 173.67 8.64 173.67 9.28L173.67 10.01C172.89 10.02 172.21 10.09 171.65 10.21C171.09 10.32 170.63 10.47 170.27 10.65C169.90 10.84 169.65 11.06 169.48 11.31C169.32 11.56 169.23 11.83 169.23 12.12C169.23 12.45 169.29 12.73 169.39 12.95C169.50 13.17 169.64 13.36 169.81 13.50C169.97 13.64 170.18 13.75 170.41 13.82C170.63 13.89 170.86 13.93 171.09 13.93C171.37 13.93 171.64 13.90 171.88 13.85C172.12 13.79 172.33 13.71 172.54 13.61C172.75 13.51 172.94 13.38 173.14 13.23C173.32 13.08 173.50 12.91 173.70 12.73L173.80 13.62C173.82 13.75 173.92 13.82 174.06 13.82L174.08 13.82L174.33 13.82L175.25 13.82L175.25 13.54C175.25 13.38 175.15 13.30 174.97 13.29ZM173.67 12.26C173.50 12.43 173.35 12.60 173.18 12.74C173.01 12.88 172.83 13.01 172.63 13.12C172.44 13.23 172.23 13.30 172.00 13.36C171.78 13.41 171.53 13.44 171.26 13.44C171.08 13.44 170.90 13.43 170.73 13.37C170.56 13.31 170.42 13.24 170.30 13.13C170.17 13.02 170.06 12.88 169.99 12.71C169.90 12.54 169.88 12.35 169.88 12.11C169.88 11.86 169.95 11.63 170.10 11.44C170.25 11.24 170.48 11.09 170.79 10.95C171.09 10.81 171.49 10.70 171.96 10.61C172.44 10.53 173.01 10.47 173.67 10.46ZM189.90 6.86L189.38 6.86L187.98 6.86L187.98 7.13C187.98 7.28 188.08 7.36 188.26 7.38L188.33 7.38C188.36 7.38 188.38 7.39 188.43 7.39L188.64 7.39C188.73 7.39 188.85 7.41 188.97 7.41L186.83 12.45L186.75 12.66C186.72 12.73 186.70 12.80 186.68 12.87C186.66 12.80 186.62 12.73 186.61 12.66C186.58 12.59 186.56 12.52 186.54 12.45L184.37 7.41C184.52 7.41 184.66 7.39 184.77 7.39C184.88 7.39 184.97 7.38 185.00 7.38L185.08 7.38C185.26 7.36 185.36 7.28 185.36 7.13L185.36 6.86L183.95 6.86L183.95 6.86L183.39 6.86L182.92 6.86L182.92 7.13C182.92 7.28 183.02 7.36 183.20 7.38C183.20 7.38 183.34 7.38 183.62 7.39L186.34 13.57L185.11 16.28L185.58 16.28C185.67 16.28 185.74 16.25 185.78 16.21C185.82 16.17 185.86 16.13 185.89 16.06L189.66 7.39L189.91 7.39C189.99 7.39 190.04 7.38 190.06 7.38L190.13 7.38C190.32 7.36 190.41 7.28 190.41 7.13L190.41 6.86ZM216.09 13.29L216.02 13.29L215.91 13.29C215.87 13.29 215.80 13.27 215.70 13.27C215.60 13.27 215.49 13.26 215.36 13.26L215.36 9.37C215.36 8.96 215.31 8.60 215.21 8.27C215.11 7.95 214.97 7.67 214.77 7.45C214.58 7.22 214.34 7.06 214.05 6.93C213.75 6.80 213.42 6.75 213.04 6.75C212.52 6.75 212.04 6.87 211.62 7.11C211.20 7.36 210.84 7.67 210.52 8.08L210.46 7.03C210.45 6.92 210.38 6.86 210.25 6.86L209.89 6.86L208.88 6.86L208.88 7.13C208.88 7.28 208.96 7.36 209.15 7.38L209.23 7.38C209.26 7.38 209.29 7.39 209.33 7.39L209.54 7.39C209.64 7.39 209.76 7.41 209.89 7.41L209.89 13.26C209.72 13.26 209.58 13.29 209.47 13.29L209.24 13.29L209.15 13.29C208.96 13.30 208.88 13.38 208.88 13.54L208.88 13.82L209.89 13.82L210.55 13.82L211.55 13.82L211.55 13.54C211.55 13.38 211.47 13.30 211.29 13.29L211.20 13.29L211.11 13.29C211.06 13.29 210.99 13.27 210.90 13.27C210.80 13.27 210.67 13.26 210.55 13.26L210.55 8.60C210.85 8.19 211.20 7.87 211.60 7.63C211.99 7.39 212.41 7.28 212.87 7.28C213.49 7.28 213.95 7.46 214.24 7.83C214.54 8.20 214.69 8.71 214.69 9.37L214.69 13.82L215.36 13.82L216.37 13.82L216.37 13.54C216.37 13.38 216.27 13.30 216.09 13.29ZM227.68 6.73C227.18 6.73 226.73 6.83 226.34 7.00C225.95 7.17 225.61 7.41 225.33 7.71C225.05 8.02 224.85 8.40 224.71 8.85C224.57 9.30 224.49 9.79 224.49 10.33C224.49 10.88 224.57 11.37 224.71 11.80C224.85 12.24 225.05 12.63 225.33 12.94C225.61 13.24 225.95 13.48 226.34 13.65C226.73 13.82 227.18 13.90 227.68 13.90C228.19 13.90 228.62 13.82 229.01 13.65C229.40 13.48 229.74 13.24 230.01 12.94C230.27 12.63 230.50 12.24 230.64 11.80C230.78 11.37 230.85 10.88 230.85 10.33C230.85 9.79 230.78 9.30 230.64 8.85C230.50 8.40 230.27 8.02 230.01 7.71C229.74 7.41 229.40 7.17 229.01 7.00C228.62 6.83 228.19 6.73 227.68 6.73ZM227.68 13.38C227.26 13.38 226.90 13.31 226.59 13.17C226.28 13.03 226.02 12.82 225.81 12.56C225.60 12.29 225.46 11.97 225.34 11.59C225.23 11.21 225.19 10.79 225.19 10.33C225.19 9.87 225.23 9.45 225.34 9.07C225.46 8.69 225.60 8.37 225.81 8.11C226.02 7.84 226.28 7.62 226.59 7.48C226.90 7.34 227.26 7.27 227.68 7.27C228.10 7.27 228.45 7.34 228.76 7.48C229.07 7.62 229.33 7.84 229.54 8.11C229.75 8.37 229.91 8.69 230.01 9.07C230.10 9.45 230.16 9.87 230.16 10.33C230.16 10.79 230.10 11.21 230.01 11.59C229.91 11.97 229.75 12.29 229.54 12.56C229.33 12.82 229.07 13.03 228.76 13.17C228.45 13.31 228.10 13.38 227.68 13.38ZM260.26 13.29L260.18 13.29L260.08 13.29C260.04 13.29 259.97 13.27 259.87 13.27C259.77 13.27 259.64 13.26 259.52 13.26L259.52 9.37C259.52 8.95 259.46 8.57 259.36 8.25C259.27 7.92 259.13 7.64 258.93 7.42C258.73 7.20 258.50 7.03 258.22 6.92C257.94 6.80 257.64 6.75 257.29 6.75C257.05 6.75 256.80 6.78 256.58 6.85C256.35 6.92 256.14 7.01 255.95 7.15C255.75 7.29 255.57 7.46 255.42 7.67C255.26 7.88 255.15 8.13 255.07 8.43C254.95 7.90 254.76 7.48 254.45 7.18C254.14 6.89 253.74 6.75 253.23 6.75C253.01 6.75 252.80 6.76 252.60 6.83C252.41 6.89 252.22 6.99 252.04 7.10C251.87 7.21 251.71 7.36 251.55 7.52C251.40 7.67 251.26 7.84 251.12 8.04L251.06 7.03C251.05 6.92 250.98 6.86 250.85 6.86L250.49 6.86L249.48 6.86L249.48 7.13C249.48 7.28 249.56 7.36 249.75 7.38L249.83 7.38C249.86 7.38 249.89 7.39 249.93 7.39L250.14 7.39C250.24 7.39 250.36 7.41 250.49 7.41L250.49 13.26C250.32 13.26 250.18 13.29 250.07 13.29L249.84 13.29L249.75 13.29C249.56 13.30 249.48 13.38 249.48 13.54L249.48 13.82L250.49 13.82L251.15 13.82L252.15 13.82L252.15 13.54C252.15 13.38 252.07 13.30 251.89 13.29L251.80 13.29L251.71 13.29C251.66 13.29 251.59 13.27 251.50 13.27C251.40 13.27 251.27 13.26 251.15 13.26L251.15 8.55C251.40 8.15 251.69 7.84 252.01 7.62C252.34 7.39 252.69 7.28 253.06 7.28C253.58 7.28 253.97 7.45 254.24 7.81C254.51 8.18 254.65 8.69 254.65 9.37L254.65 13.82L255.32 13.82L255.32 13.82L256.33 13.82L256.33 13.54C256.33 13.38 256.23 13.30 256.05 13.29L255.98 13.29L255.86 13.29C255.82 13.29 255.75 13.27 255.65 13.27C255.56 13.27 255.44 13.26 255.32 13.26L255.32 9.37C255.32 9.02 255.36 8.72 255.46 8.46C255.56 8.19 255.70 7.97 255.86 7.80C256.03 7.63 256.23 7.49 256.45 7.41C256.68 7.32 256.91 7.28 257.15 7.28C257.70 7.28 258.12 7.46 258.41 7.81C258.71 8.18 258.86 8.68 258.86 9.37L258.86 13.82L259.52 13.82L260.53 13.82L260.53 13.54C260.53 13.38 260.44 13.30 260.26 13.29ZM271.84 6.73C271.33 6.73 270.89 6.83 270.49 7.00C270.10 7.17 269.77 7.41 269.49 7.71C269.21 8.02 269.01 8.40 268.87 8.85C268.73 9.30 268.65 9.79 268.65 10.33C268.65 10.88 268.73 11.37 268.87 11.80C269.01 12.24 269.21 12.63 269.49 12.94C269.77 13.24 270.10 13.48 270.49 13.65C270.89 13.82 271.33 13.90 271.84 13.90C272.34 13.90 272.78 13.82 273.17 13.65C273.56 13.48 273.90 13.24 274.16 12.94C274.43 12.63 274.65 12.24 274.79 11.80C274.93 11.37 275.00 10.88 275.00 10.33C275.00 9.79 274.93 9.30 274.79 8.85C274.65 8.40 274.43 8.02 274.16 7.71C273.90 7.41 273.56 7.17 273.17 7.00C272.78 6.83 272.34 6.73 271.84 6.73ZM271.84 13.38C271.42 13.38 271.05 13.31 270.75 13.17C270.44 13.03 270.17 12.82 269.96 12.56C269.75 12.29 269.61 11.97 269.50 11.59C269.39 11.21 269.35 10.79 269.35 10.33C269.35 9.87 269.39 9.45 269.50 9.07C269.61 8.69 269.75 8.37 269.96 8.11C270.17 7.84 270.44 7.62 270.75 7.48C271.05 7.34 271.42 7.27 271.84 7.27C272.26 7.27 272.61 7.34 272.92 7.48C273.22 7.62 273.49 7.84 273.70 8.11C273.91 8.37 274.06 8.69 274.16 9.07C274.26 9.45 274.32 9.87 274.32 10.33C274.32 10.79 274.26 11.21 274.16 11.59C274.06 11.97 273.91 12.29 273.70 12.56C273.49 12.82 273.22 13.03 272.92 13.17C272.61 13.31 272.26 13.38 271.84 13.38ZM287.76 6.80C287.57 6.76 287.39 6.73 287.18 6.73C286.64 6.73 286.17 6.89 285.80 7.21C285.42 7.53 285.12 7.98 284.90 8.54L284.84 7.07C284.84 6.99 284.82 6.93 284.79 6.90C284.76 6.87 284.70 6.86 284.62 6.86L284.27 6.86L284.27 6.86L283.26 6.86L283.26 7.13C283.26 7.31 283.36 7.36 283.53 7.38C283.61 7.38 283.70 7.38 284.27 7.41L284.27 13.26C283.70 13.29 283.61 13.29 283.53 13.29C283.36 13.30 283.26 13.36 283.26 13.54L283.26 13.82L284.27 13.82L284.93 13.82L284.93 13.82L285.94 13.82L285.94 13.54C285.94 13.36 285.84 13.30 285.67 13.29C285.59 13.29 285.50 13.29 284.93 13.26L284.93 9.30C285.14 8.68 285.42 8.20 285.75 7.88C286.09 7.56 286.52 7.39 287.06 7.39C287.20 7.39 287.32 7.41 287.43 7.42C287.55 7.43 287.66 7.45 287.73 7.48C287.81 7.50 287.85 7.53 287.91 7.55C287.97 7.56 288.01 7.57 288.04 7.57C288.12 7.57 288.16 7.53 288.18 7.46L288.26 7.00C288.11 6.92 287.94 6.85 287.76 6.80ZM299.21 6.73C298.72 6.73 298.27 6.83 297.88 7.00C297.49 7.17 297.16 7.41 296.90 7.71C296.63 8.02 296.42 8.39 296.28 8.81C296.14 9.23 296.06 9.69 296.06 10.19C296.06 10.78 296.14 11.31 296.30 11.77C296.45 12.24 296.66 12.61 296.94 12.94C297.22 13.26 297.56 13.50 297.95 13.66C298.34 13.83 298.77 13.90 299.25 13.90C299.52 13.90 299.78 13.89 300.03 13.83C300.29 13.78 300.54 13.71 300.76 13.62C300.99 13.54 301.20 13.44 301.38 13.31C301.56 13.19 301.71 13.06 301.83 12.92L301.64 12.70C301.62 12.66 301.56 12.63 301.50 12.63C301.46 12.63 301.38 12.66 301.28 12.74C301.18 12.82 301.04 12.91 300.86 13.01C300.69 13.10 300.47 13.17 300.22 13.26C299.96 13.34 299.66 13.38 299.31 13.38C298.91 13.38 298.56 13.31 298.24 13.17C297.92 13.03 297.65 12.84 297.43 12.57C297.21 12.31 297.04 11.97 296.91 11.58C296.79 11.19 296.73 10.71 296.73 10.19L296.73 10.07L301.76 10.07C301.83 10.07 301.87 10.05 301.90 10.01C301.92 9.97 301.95 9.90 301.95 9.80C301.95 9.31 301.88 8.88 301.74 8.50C301.60 8.12 301.42 7.78 301.17 7.53C300.93 7.28 300.64 7.08 300.30 6.94C299.96 6.80 299.60 6.73 299.21 6.73ZM299.22 7.24C299.54 7.24 299.82 7.29 300.09 7.41C300.36 7.52 300.58 7.67 300.76 7.88C300.94 8.09 301.10 8.33 301.20 8.62C301.29 8.92 301.35 9.25 301.35 9.63L296.76 9.63C296.80 9.27 296.88 8.93 297.01 8.64C297.14 8.34 297.30 8.09 297.51 7.88C297.72 7.67 297.98 7.52 298.26 7.41C298.54 7.29 298.86 7.24 299.22 7.24ZM310.46 13.29C310.46 13.47 310.52 13.61 310.65 13.73C310.77 13.86 310.93 13.93 311.11 13.93C311.19 13.93 311.28 13.90 311.36 13.87C311.44 13.85 311.50 13.79 311.56 13.73C311.61 13.68 311.67 13.62 311.70 13.54C311.72 13.45 311.75 13.38 311.75 13.29C311.75 13.20 311.72 13.12 311.70 13.03C311.67 12.95 311.61 12.88 311.56 12.82C311.50 12.77 311.44 12.71 311.36 12.68C311.28 12.66 311.19 12.63 311.11 12.63C311.01 12.63 310.93 12.66 310.84 12.68C310.76 12.71 310.70 12.77 310.65 12.82C310.59 12.88 310.53 12.95 310.51 13.03C310.48 13.12 310.46 13.20 310.46 13.29Z"></path></g></svg>