<svg data-v-423bf9ae="" xmlns="http://www.w3.org/2000/svg" viewBox="0 0 348 91" class="iconLeftSlogan"><!----><!----><!----><g data-v-423bf9ae="" id="ac57bb4a-7c4d-42ae-8744-866007100158" fill="black" transform="matrix(5.44997732156018,0,0,5.44997732156018,109.56056424026313,-0.34487348263017026)"><path d="M0.91 10.64L0.91 10.64L2.76 10.64C4.79 10.64 5.99 9.16 5.99 7.36L5.99 0.81C5.99 0.56 5.78 0.35 5.53 0.35C5.26 0.35 5.05 0.56 5.05 0.81L5.05 7.36C5.05 8.65 4.23 9.72 2.76 9.70L0.91 9.70C0.66 9.70 0.45 9.91 0.45 10.18C0.45 10.43 0.66 10.64 0.91 10.64ZM3.19 7.36L3.19 7.36C3.19 7.64 2.97 7.83 2.70 7.83L1.05 7.83C0.78 7.83 0.57 8.04 0.57 8.30C0.57 8.55 0.78 8.76 1.05 8.76L2.70 8.76C3.49 8.76 4.12 8.16 4.12 7.36L4.12 0.81C4.12 0.56 3.91 0.35 3.65 0.35C3.40 0.35 3.19 0.56 3.19 0.81ZM10.92 7.84L10.92 7.84L12.28 7.84C12.54 7.84 12.77 7.63 12.77 7.36C12.77 7.29 12.75 7.24 12.73 7.18L12.04 5.50C11.94 5.28 11.68 5.17 11.42 5.26C11.20 5.35 11.09 5.63 11.17 5.87L11.59 6.90L10.92 6.90C10.67 6.90 10.46 7.10 10.46 7.36C10.46 7.63 10.67 7.84 10.92 7.84ZM10.23 10.26L10.23 10.26L10.47 9.72L12.74 9.72L12.96 10.26C13.06 10.51 13.34 10.61 13.58 10.53C13.82 10.42 13.92 10.15 13.83 9.91L13.50 9.10C13.44 8.92 13.26 8.76 13.05 8.76L10.15 8.76L10.15 8.76C9.98 8.76 9.80 8.89 9.72 9.06L9.38 9.91C9.28 10.15 9.39 10.42 9.63 10.53C9.88 10.61 10.15 10.50 10.23 10.26ZM8.23 10.26L8.23 10.26L11.61 1.76L14.98 10.26C15.08 10.50 15.36 10.61 15.60 10.53C15.83 10.42 15.95 10.15 15.85 9.91L12.04 0.36C12.00 0.25 11.91 0.14 11.77 0.10C11.55 0 11.27 0.11 11.17 0.36L7.35 9.91C7.27 10.15 7.39 10.42 7.62 10.53C7.85 10.61 8.12 10.50 8.23 10.26ZM18.21 10.18L18.21 10.18L18.21 0.81C18.21 0.56 18.02 0.36 17.75 0.36C17.50 0.36 17.29 0.56 17.29 0.81L17.29 10.18C17.29 10.43 17.50 10.65 17.75 10.65C18.02 10.65 18.21 10.43 18.21 10.18ZM25.86 10.18L25.86 10.18L25.86 0.81C25.86 0.56 25.65 0.36 25.38 0.36C25.13 0.36 24.92 0.56 24.92 0.81L24.92 10.18C24.92 10.43 25.13 10.65 25.38 10.65C25.65 10.65 25.86 10.43 25.86 10.18ZM24.08 9.91L24.08 9.91L20.01 4.09C19.87 3.86 19.56 3.81 19.36 3.98C19.22 4.06 19.17 4.20 19.17 4.35L19.17 10.18C19.17 10.43 19.36 10.64 19.61 10.64C19.88 10.64 20.09 10.43 20.09 10.18L20.09 5.84L23.31 10.44C23.46 10.65 23.74 10.71 23.97 10.57C24.16 10.40 24.22 10.12 24.08 9.91ZM19.07 1.09L19.07 1.09L23.13 6.92C23.28 7.13 23.56 7.18 23.77 7.03C23.91 6.94 23.98 6.79 23.98 6.64L23.98 0.81C23.98 0.56 23.77 0.36 23.52 0.36C23.27 0.36 23.04 0.56 23.04 0.81L23.04 5.17L19.82 0.56C19.68 0.35 19.39 0.28 19.18 0.45C18.97 0.59 18.91 0.87 19.07 1.09ZM33.42 2.23L33.42 2.23L30.45 2.23C30.18 2.23 29.97 2.42 29.97 2.69L29.97 4.56C29.97 4.82 30.18 5.03 30.45 5.03L32.55 5.03C32.82 5.03 33.03 4.82 33.03 4.56C33.03 4.30 32.82 4.09 32.55 4.09L30.91 4.09L30.91 3.15L33.42 3.15C33.68 3.15 33.89 2.94 33.89 2.69C33.89 2.42 33.68 2.23 33.42 2.23ZM32.55 5.96L32.55 5.96L30.45 5.96C30.18 5.96 29.97 6.17 29.97 6.43L29.97 8.30C29.97 8.55 30.18 8.76 30.45 8.76L33.42 8.76C33.68 8.76 33.89 8.55 33.89 8.30C33.89 8.04 33.68 7.83 33.42 7.83L30.91 7.83L30.91 6.90L32.55 6.90C32.82 6.90 33.03 6.69 33.03 6.43C33.03 6.17 32.82 5.96 32.55 5.96ZM33.42 9.70L33.42 9.70L29.05 9.70L29.05 1.29L33.42 1.29C33.68 1.29 33.89 1.08 33.89 0.81C33.89 0.56 33.68 0.35 33.42 0.35L28.57 0.35C28.32 0.35 28.11 0.56 28.11 0.81L28.11 10.18C28.11 10.43 28.32 10.64 28.57 10.64L33.42 10.64C33.68 10.64 33.89 10.43 33.89 10.18C33.89 9.91 33.68 9.70 33.42 9.70ZM36.90 0.99L36.90 0.99L38.77 5.60C38.93 5.98 39.48 5.98 39.63 5.60L41.52 0.99C41.61 0.74 41.50 0.49 41.26 0.38C41.02 0.29 40.74 0.41 40.66 0.64L39.21 4.19L37.76 0.64C37.66 0.41 37.39 0.29 37.14 0.38C36.92 0.49 36.79 0.74 36.90 0.99ZM42.77 0.64L42.77 0.64L39.21 9.38L35.64 0.64C35.55 0.41 35.28 0.29 35.04 0.38C34.79 0.49 34.69 0.74 34.78 0.99L38.77 10.78C38.93 11.17 39.47 11.17 39.63 10.78L43.62 0.99C43.72 0.74 43.61 0.49 43.37 0.38C43.15 0.29 42.87 0.41 42.77 0.64Z"></path></g><!----><g data-v-423bf9ae="" id="e391c015-5332-49ae-b8b0-a62a41c1e337" transform="matrix(1.0223672298355457,0,0,1.0223672298355457,-4.118361491777286,-5.133867884217622)" stroke="none" fill="black"><path d="M52.263 62.886c-.346-2.984-1.073-5.734-2.182-8.251l-.128.074a25.246 25.246 0 0 0 1.485-1.369c.443-.441.849-.898 1.248-1.358l-.01.018c2.452 1.071 5.195 1.809 8.232 2.214l1.863-3.227c-1.779-2.396-3.771-4.401-5.971-6.02.408-1.16.721-2.36.935-3.601v.159c2.658-.298 5.404-1.031 8.236-2.199v-3.727c-2.758-1.192-5.503-1.938-8.236-2.236v.074a21.723 21.723 0 0 0-.954-3.678c2.122-1.578 4.106-3.561 5.952-5.958l-1.863-3.228c-2.97.344-5.706 1.067-8.212 2.167a25.128 25.128 0 0 0-1.22-1.303 25.168 25.168 0 0 0-1.304-1.221l.036.021c1.071-2.451 1.809-5.195 2.214-8.232l-3.227-1.864c-2.393 1.777-4.395 3.766-6.013 5.962a21.582 21.582 0 0 0-3.675-.959c-.3-2.649-1.03-5.383-2.194-8.205h-3.727c-1.191 2.756-1.937 5.5-2.235 8.231a21.79 21.79 0 0 0-3.368.876c-1.585-2.147-3.588-4.152-6.009-6.017l-3.228 1.864c.346 2.985 1.073 5.735 2.182 8.251l.022-.013c-.481.413-.954.845-1.415 1.306-.446.445-.853.907-1.253 1.372-2.447-1.067-5.186-1.804-8.216-2.208L8.164 23.83c1.783 2.4 3.778 4.409 5.984 6.03a22.223 22.223 0 0 0-.912 3.558v-.165c-2.659.297-5.404 1.03-8.236 2.198v3.727c2.758 1.192 5.502 1.938 8.236 2.236v-.071c.213 1.294.546 2.539.974 3.744-2.144 1.584-4.147 3.585-6.009 6.003l1.864 3.228c2.985-.347 5.735-1.073 8.251-2.182l-.119-.205c.411.479.842.951 1.301 1.41a24.887 24.887 0 0 0 1.75 1.576l-.521-.301c-1.071 2.452-1.809 5.195-2.213 8.232l3.228 1.863c2.411-1.793 4.429-3.798 6.054-6.016l-.139-.08c1.214.441 2.468.786 3.773 1.009.299 2.651 1.031 5.39 2.195 8.214h3.727c1.19-2.752 1.934-5.492 2.233-8.22a21.467 21.467 0 0 0 3.438-.892c1.586 2.149 3.591 4.156 6.014 6.022l3.226-1.862zM44.134 46.04c-2.393 2.395-5.274 3.592-8.647 3.592s-6.256-1.197-8.647-3.592c-2.397-2.394-3.595-5.277-3.595-8.65s1.198-6.258 3.595-8.65c2.391-2.395 5.274-3.592 8.647-3.592s6.254 1.197 8.647 3.592c2.397 2.392 3.595 5.277 3.595 8.65s-1.198 6.256-3.595 8.65zm44.17-19.548c.11-.677.155-1.339.155-1.991 2.244-1.198 4.426-2.773 6.541-4.754l-1.318-3.486c-2.874-.134-5.588.123-8.15.748a11.048 11.048 0 0 0-2.87-2.335c.09-2.557-.186-5.25-.847-8.088l-3.678-.601c-1.551 2.418-2.685 4.894-3.424 7.422-1.237.246-2.42.711-3.551 1.39-2.158-1.341-4.609-2.441-7.378-3.281l-2.359 2.885c1.319 2.552 2.896 4.771 4.716 6.675a12.401 12.401 0 0 0-.42 1.724c-.11.678-.156 1.34-.156 1.991-2.244 1.198-4.426 2.773-6.54 4.753l1.318 3.486c2.864.134 5.57-.122 8.125-.742a10.99 10.99 0 0 0 2.939 2.363c-.083 2.537.19 5.208.847 8.022l3.678.601c1.548-2.414 2.68-4.884 3.419-7.406a11.045 11.045 0 0 0 3.458-1.368c2.169 1.355 4.637 2.463 7.426 3.309l2.359-2.885c-1.32-2.554-2.898-4.774-4.721-6.68.18-.561.331-1.14.431-1.752zm-7.253-1.185c-.18 1.113-.731 1.999-1.651 2.66-.919.66-1.935.901-3.047.72-1.114-.182-2-.733-2.66-1.652-.663-.92-.901-1.935-.721-3.048.183-1.113.734-2.002 1.653-2.662.919-.661 1.936-.899 3.047-.717 1.114.182 2 .73 2.661 1.649.662.919.901 1.936.718 3.05zm1.535 37.746c1.588-2.038 2.953-4.409 4.086-7.13l-2.636-2.636c-2.695 1.068-5.081 2.43-7.171 4.07a14.654 14.654 0 0 0-3.814-1.562c-.32-2.561-1.029-5.199-2.151-7.92h-3.727c-1.148 2.655-1.871 5.297-2.19 7.93a14.7 14.7 0 0 0-3.845 1.596c-2.029-1.572-4.384-2.928-7.086-4.053l-2.636 2.636c1.062 2.677 2.412 5.047 4.038 7.128a14.706 14.706 0 0 0-1.59 3.909c-2.531.326-5.137 1.028-7.824 2.137v3.727c2.635 1.141 5.259 1.858 7.872 2.182.358 1.369.907 2.66 1.639 3.875-1.565 2.023-2.916 4.371-4.037 7.064l2.636 2.636c2.687-1.065 5.064-2.421 7.149-4.055a14.717 14.717 0 0 0 3.878 1.547c.322 2.548 1.029 5.175 2.146 7.882h3.727c1.154-2.667 1.88-5.322 2.196-7.967a14.639 14.639 0 0 0 3.78-1.612c2.033 1.581 4.396 2.941 7.108 4.07l2.636-2.636c-1.072-2.705-2.438-5.099-4.087-7.194a14.719 14.719 0 0 0 1.52-3.781c2.578-.316 5.237-1.029 7.979-2.16v-3.727c-2.687-1.163-5.361-1.893-8.025-2.205a14.699 14.699 0 0 0-1.571-3.751zm-7.962 13.521c-1.559 1.557-3.431 2.331-5.625 2.331s-4.067-.774-5.622-2.331c-1.559-1.559-2.337-3.437-2.337-5.631 0-2.193.778-4.065 2.337-5.622 1.555-1.557 3.428-2.337 5.622-2.337s4.066.78 5.625 2.337 2.337 3.429 2.337 5.622c0 2.195-.778 4.073-2.337 5.631z"></path></g><!----><g data-v-423bf9ae="" id="b436f58d-c4b6-4582-9d05-4fcd09ec80c8" fill="black" transform="matrix(0.5717356477540338,0,0,0.5717356477540338,111.55566082711567,57.83312307001428)"><path d="M6.43 9.91C6.29 9.65 6.09 9.39 5.85 9.21C5.61 9.03 5.36 8.88 5.07 8.75C4.77 8.62 4.45 8.51 4.14 8.41C3.84 8.32 3.53 8.20 3.23 8.11C2.94 7.99 2.67 7.87 2.44 7.71C2.20 7.56 2.02 7.38 1.88 7.15C1.74 6.93 1.65 6.65 1.65 6.31C1.65 6.06 1.71 5.82 1.81 5.59C1.90 5.35 2.04 5.15 2.23 4.97C2.41 4.79 2.63 4.65 2.91 4.55C3.19 4.45 3.50 4.40 3.86 4.40C4.54 4.40 5.15 4.51 5.71 4.75C5.75 5.54 5.78 5.99 5.78 6.06C5.80 6.29 5.88 6.41 6.08 6.41L6.41 6.41L6.41 4.38C5.53 4.00 4.69 3.81 3.86 3.81C3.40 3.81 3.00 3.88 2.63 4.02C2.27 4.16 1.97 4.34 1.74 4.58C1.50 4.82 1.30 5.08 1.18 5.39C1.05 5.70 0.99 6.02 0.99 6.36C0.99 6.78 1.06 7.14 1.20 7.42C1.34 7.70 1.54 7.92 1.78 8.12C2.02 8.32 2.27 8.46 2.56 8.58C2.86 8.71 3.18 8.82 3.49 8.92C3.79 9.02 4.09 9.11 4.40 9.21C4.69 9.31 4.96 9.45 5.19 9.60C5.43 9.76 5.61 9.94 5.75 10.16C5.89 10.39 5.96 10.68 5.96 11.03C5.96 11.35 5.91 11.66 5.80 11.94C5.68 12.22 5.53 12.46 5.32 12.67C5.11 12.88 4.84 13.05 4.54 13.16C4.23 13.29 3.88 13.33 3.49 13.33C2.70 13.33 2.04 13.20 1.51 12.95C1.50 12.75 1.50 12.54 1.48 12.32C1.47 12.10 1.47 11.91 1.46 11.76C1.44 11.61 1.44 11.52 1.44 11.51C1.43 11.28 1.33 11.17 1.13 11.17L0.80 11.17L0.80 13.02L0.80 13.20L0.80 13.38C1.65 13.75 2.53 13.93 3.46 13.93C3.96 13.93 4.41 13.85 4.80 13.69C5.19 13.54 5.53 13.31 5.80 13.05C6.06 12.78 6.29 12.46 6.43 12.10C6.57 11.73 6.64 11.34 6.64 10.92C6.64 10.51 6.57 10.18 6.43 9.91ZM24.19 13.22L23.73 13.17L19.95 3.91L19.24 3.91L15.44 13.17L14.99 13.22C14.81 13.23 14.73 13.33 14.73 13.50L14.73 13.82L15.18 13.82L15.47 13.82L15.72 13.82L15.82 13.82L17.14 13.82L17.14 13.50C17.14 13.31 17.02 13.23 16.81 13.22C16.80 13.22 16.77 13.20 16.73 13.20C16.69 13.20 16.63 13.19 16.53 13.19C16.44 13.19 16.31 13.19 16.17 13.17L17.15 10.75L17.22 10.57L21.95 10.57L22.02 10.75L23.00 13.17C22.86 13.19 22.75 13.19 22.65 13.19C22.55 13.19 22.48 13.20 22.44 13.20C22.40 13.20 22.37 13.22 22.36 13.22C22.15 13.23 22.04 13.31 22.04 13.50L22.04 13.82L23.35 13.82L23.45 13.82L23.72 13.82L24.00 13.82L24.46 13.82L24.46 13.50C24.46 13.33 24.37 13.23 24.19 13.22ZM19.39 5.22C19.42 5.14 19.46 5.04 19.49 4.94C19.52 4.84 19.56 4.75 19.59 4.63C19.61 4.75 19.66 4.84 19.68 4.94C19.71 5.04 19.75 5.12 19.78 5.21L21.74 10.04L17.44 10.04ZM38.92 4.68C38.33 4.17 37.45 3.92 36.29 3.92L33.88 3.92L32.69 3.92L32.69 4.19C32.69 4.34 32.79 4.42 32.97 4.44L33.11 4.44C33.18 4.44 33.28 4.45 33.42 4.45C33.56 4.45 33.71 4.47 33.88 4.47L33.88 13.26C33.71 13.26 33.56 13.27 33.42 13.27C33.28 13.27 33.18 13.29 33.11 13.29L32.97 13.29C32.79 13.30 32.69 13.38 32.69 13.54L32.69 13.82L33.88 13.82L34.59 13.82L35.77 13.82L35.77 13.54C35.77 13.38 35.67 13.30 35.49 13.29L35.36 13.29C35.29 13.29 35.18 13.27 35.04 13.27C34.90 13.27 34.76 13.26 34.59 13.26L34.59 9.83L36.29 9.83C36.83 9.83 37.32 9.74 37.76 9.60C38.19 9.45 38.56 9.25 38.86 8.99C39.17 8.72 39.41 8.41 39.56 8.05C39.73 7.69 39.80 7.29 39.80 6.86C39.80 5.92 39.51 5.18 38.92 4.68ZM38.89 7.81C38.77 8.11 38.58 8.36 38.35 8.57C38.11 8.78 37.81 8.95 37.46 9.07C37.11 9.20 36.72 9.25 36.29 9.25L34.59 9.25L34.59 4.48L36.29 4.48C37.21 4.48 37.91 4.69 38.39 5.10C38.85 5.50 39.09 6.09 39.09 6.85C39.09 7.20 39.02 7.52 38.89 7.81ZM46.70 13.23C46.70 13.41 46.75 13.57 46.86 13.68C46.97 13.79 47.12 13.85 47.29 13.85L47.40 13.85C47.43 13.85 47.46 13.83 47.49 13.82C47.47 13.99 47.43 14.14 47.38 14.29C47.32 14.45 47.25 14.57 47.18 14.70C47.11 14.83 47.04 14.94 46.97 15.02C46.90 15.11 46.83 15.19 46.79 15.23C46.77 15.25 46.76 15.27 46.75 15.30C46.73 15.33 46.72 15.33 46.72 15.36C46.72 15.40 46.73 15.44 46.77 15.48L46.89 15.58C47.04 15.43 47.19 15.29 47.32 15.11C47.45 14.92 47.56 14.74 47.66 14.55C47.75 14.35 47.81 14.15 47.87 13.96C47.92 13.76 47.94 13.58 47.94 13.38C47.94 13.16 47.88 12.98 47.77 12.84C47.66 12.70 47.50 12.63 47.31 12.63C47.12 12.63 46.98 12.70 46.87 12.81C46.76 12.92 46.70 13.06 46.70 13.23ZM76.26 13.22L75.80 13.17L72.02 3.91L71.30 3.91L67.51 13.17L67.06 13.22C66.88 13.23 66.79 13.33 66.79 13.50L66.79 13.82L67.24 13.82L67.54 13.82L67.79 13.82L67.89 13.82L69.20 13.82L69.20 13.50C69.20 13.31 69.09 13.23 68.88 13.22C68.87 13.22 68.84 13.20 68.80 13.20C68.75 13.20 68.70 13.19 68.60 13.19C68.50 13.19 68.38 13.19 68.24 13.17L69.22 10.75L69.29 10.57L74.02 10.57L74.09 10.75L75.07 13.17C74.93 13.19 74.82 13.19 74.72 13.19C74.62 13.19 74.55 13.20 74.51 13.20C74.47 13.20 74.44 13.22 74.42 13.22C74.21 13.23 74.10 13.31 74.10 13.50L74.10 13.82L75.42 13.82L75.52 13.82L75.78 13.82L76.06 13.82L76.52 13.82L76.52 13.50C76.52 13.33 76.44 13.23 76.26 13.22ZM71.46 5.22C71.48 5.14 71.53 5.04 71.55 4.94C71.58 4.84 71.62 4.75 71.65 4.63C71.68 4.75 71.72 4.84 71.75 4.94C71.78 5.04 71.82 5.12 71.85 5.21L73.81 10.04L69.51 10.04ZM90.48 9.91C90.34 9.65 90.15 9.39 89.91 9.21C89.67 9.03 89.42 8.88 89.12 8.75C88.83 8.62 88.51 8.51 88.20 8.41C87.89 8.32 87.58 8.20 87.29 8.11C87.00 7.99 86.73 7.87 86.49 7.71C86.25 7.56 86.07 7.38 85.93 7.15C85.79 6.93 85.71 6.65 85.71 6.31C85.71 6.06 85.76 5.82 85.86 5.59C85.96 5.35 86.10 5.15 86.28 4.97C86.46 4.79 86.69 4.65 86.97 4.55C87.25 4.45 87.56 4.40 87.92 4.40C88.59 4.40 89.21 4.51 89.77 4.75C89.81 5.54 89.84 5.99 89.84 6.06C89.85 6.29 89.94 6.41 90.13 6.41L90.47 6.41L90.47 4.38C89.59 4.00 88.75 3.81 87.92 3.81C87.46 3.81 87.05 3.88 86.69 4.02C86.32 4.16 86.03 4.34 85.79 4.58C85.55 4.82 85.36 5.08 85.23 5.39C85.11 5.70 85.05 6.02 85.05 6.36C85.05 6.78 85.12 7.14 85.26 7.42C85.40 7.70 85.60 7.92 85.83 8.12C86.07 8.32 86.32 8.46 86.62 8.58C86.91 8.71 87.23 8.82 87.54 8.92C87.85 9.02 88.14 9.11 88.45 9.21C88.75 9.31 89.01 9.45 89.25 9.60C89.49 9.76 89.67 9.94 89.81 10.16C89.95 10.39 90.02 10.68 90.02 11.03C90.02 11.35 89.96 11.66 89.85 11.94C89.74 12.22 89.59 12.46 89.38 12.67C89.17 12.88 88.90 13.05 88.59 13.16C88.28 13.29 87.93 13.33 87.54 13.33C86.76 13.33 86.10 13.20 85.57 12.95C85.55 12.75 85.55 12.54 85.54 12.32C85.53 12.10 85.53 11.91 85.51 11.76C85.50 11.61 85.50 11.52 85.50 11.51C85.48 11.28 85.39 11.17 85.19 11.17L84.85 11.17L84.85 13.02L84.85 13.20L84.85 13.38C85.71 13.75 86.59 13.93 87.51 13.93C88.02 13.93 88.47 13.85 88.86 13.69C89.25 13.54 89.59 13.31 89.85 13.05C90.12 12.78 90.34 12.46 90.48 12.10C90.62 11.73 90.69 11.34 90.69 10.92C90.69 10.51 90.62 10.18 90.48 9.91ZM108.25 13.22L107.79 13.17L104.01 3.91L103.29 3.91L99.50 13.17L99.05 13.22C98.87 13.23 98.78 13.33 98.78 13.50L98.78 13.82L99.23 13.82L99.53 13.82L99.78 13.82L99.88 13.82L101.19 13.82L101.19 13.50C101.19 13.31 101.08 13.23 100.87 13.22C100.86 13.22 100.83 13.20 100.79 13.20C100.74 13.20 100.69 13.19 100.59 13.19C100.49 13.19 100.37 13.19 100.23 13.17L101.21 10.75L101.28 10.57L106.01 10.57L106.08 10.75L107.06 13.17C106.92 13.19 106.81 13.19 106.71 13.19C106.61 13.19 106.54 13.20 106.50 13.20C106.46 13.20 106.43 13.22 106.41 13.22C106.20 13.23 106.09 13.31 106.09 13.50L106.09 13.82L107.41 13.82L107.51 13.82L107.77 13.82L108.05 13.82L108.51 13.82L108.51 13.50C108.51 13.33 108.43 13.23 108.25 13.22ZM103.45 5.22C103.47 5.14 103.52 5.04 103.54 4.94C103.57 4.84 103.61 4.75 103.64 4.63C103.67 4.75 103.71 4.84 103.74 4.94C103.77 5.04 103.81 5.12 103.84 5.21L105.80 10.04L101.50 10.04ZM122.98 4.68C122.39 4.17 121.51 3.92 120.34 3.92L117.94 3.92L116.75 3.92L116.75 4.19C116.75 4.34 116.84 4.42 117.03 4.44L117.17 4.44C117.24 4.44 117.33 4.45 117.47 4.45C117.61 4.45 117.77 4.47 117.94 4.47L117.94 13.26C117.77 13.26 117.61 13.27 117.47 13.27C117.33 13.27 117.24 13.29 117.17 13.29L117.03 13.29C116.84 13.30 116.75 13.38 116.75 13.54L116.75 13.82L117.94 13.82L118.65 13.82L119.83 13.82L119.83 13.54C119.83 13.38 119.73 13.30 119.55 13.29L119.42 13.29C119.35 13.29 119.24 13.27 119.10 13.27C118.96 13.27 118.82 13.26 118.65 13.26L118.65 9.83L120.34 9.83C120.89 9.83 121.38 9.74 121.81 9.60C122.25 9.45 122.61 9.25 122.92 8.99C123.23 8.72 123.47 8.41 123.62 8.05C123.79 7.69 123.86 7.29 123.86 6.86C123.86 5.92 123.56 5.18 122.98 4.68ZM122.95 7.81C122.82 8.11 122.64 8.36 122.40 8.57C122.16 8.78 121.87 8.95 121.52 9.07C121.17 9.20 120.78 9.25 120.34 9.25L118.65 9.25L118.65 4.48L120.34 4.48C121.27 4.48 121.97 4.69 122.44 5.10C122.91 5.50 123.14 6.09 123.14 6.85C123.14 7.20 123.07 7.52 122.95 7.81ZM131.80 4.77L131.96 5.05C131.99 5.11 132.06 5.14 132.13 5.14C132.16 5.14 132.22 5.10 132.30 5.01C132.38 4.93 132.51 4.84 132.66 4.75C132.82 4.65 133.01 4.55 133.24 4.47C133.46 4.38 133.73 4.35 134.04 4.35C134.27 4.35 134.51 4.38 134.74 4.45C134.96 4.52 135.14 4.63 135.31 4.77C135.48 4.91 135.62 5.08 135.72 5.28C135.81 5.47 135.86 5.70 135.86 5.95C135.86 6.26 135.80 6.54 135.69 6.76C135.58 6.99 135.44 7.18 135.27 7.36C135.10 7.53 134.93 7.70 134.74 7.84C134.54 7.98 134.36 8.12 134.19 8.26C134.02 8.40 133.90 8.54 133.78 8.68C133.67 8.82 133.62 8.99 133.62 9.18L133.62 9.21L133.64 10.42L134.09 10.42L134.18 9.27C134.19 9.11 134.26 8.96 134.37 8.83C134.48 8.71 134.64 8.57 134.81 8.44C134.97 8.32 135.16 8.18 135.35 8.02C135.55 7.88 135.74 7.71 135.91 7.52C136.08 7.32 136.21 7.10 136.32 6.85C136.43 6.59 136.49 6.27 136.49 5.92C136.49 5.60 136.42 5.31 136.29 5.04C136.16 4.77 136.00 4.55 135.77 4.37C135.55 4.19 135.31 4.05 135.02 3.95C134.72 3.85 134.41 3.79 134.09 3.79C133.83 3.79 133.59 3.82 133.36 3.88C133.14 3.93 132.94 4.02 132.75 4.10C132.55 4.19 132.37 4.30 132.22 4.41C132.06 4.52 131.92 4.65 131.80 4.77ZM133.21 13.29C133.21 13.47 133.27 13.61 133.39 13.73C133.52 13.86 133.67 13.93 133.85 13.93C133.94 13.93 134.02 13.90 134.11 13.87C134.19 13.85 134.26 13.79 134.32 13.73C134.37 13.68 134.43 13.62 134.46 13.54C134.48 13.45 134.50 13.38 134.50 13.29C134.50 13.20 134.48 13.12 134.46 13.03C134.43 12.95 134.37 12.88 134.32 12.82C134.26 12.77 134.19 12.71 134.11 12.68C134.02 12.66 133.94 12.63 133.85 12.63C133.76 12.63 133.69 12.66 133.60 12.68C133.53 12.71 133.45 12.77 133.39 12.82C133.34 12.88 133.28 12.95 133.25 13.03C133.22 13.12 133.21 13.20 133.21 13.29ZM160.90 9.91C160.76 9.65 160.57 9.39 160.33 9.21C160.09 9.03 159.84 8.88 159.54 8.75C159.25 8.62 158.93 8.51 158.62 8.41C158.31 8.32 158.00 8.20 157.71 8.11C157.42 7.99 157.15 7.87 156.91 7.71C156.67 7.56 156.49 7.38 156.35 7.15C156.21 6.93 156.13 6.65 156.13 6.31C156.13 6.06 156.18 5.82 156.28 5.59C156.38 5.35 156.52 5.15 156.70 4.97C156.88 4.79 157.11 4.65 157.39 4.55C157.67 4.45 157.98 4.40 158.34 4.40C159.01 4.40 159.63 4.51 160.19 4.75C160.23 5.54 160.26 5.99 160.26 6.06C160.27 6.29 160.36 6.41 160.55 6.41L160.89 6.41L160.89 4.38C160.01 4.00 159.17 3.81 158.34 3.81C157.88 3.81 157.47 3.88 157.11 4.02C156.74 4.16 156.45 4.34 156.21 4.58C155.97 4.82 155.78 5.08 155.65 5.39C155.53 5.70 155.47 6.02 155.47 6.36C155.47 6.78 155.54 7.14 155.68 7.42C155.82 7.70 156.02 7.92 156.25 8.12C156.49 8.32 156.74 8.46 157.04 8.58C157.33 8.71 157.65 8.82 157.96 8.92C158.27 9.02 158.56 9.11 158.87 9.21C159.17 9.31 159.43 9.45 159.67 9.60C159.91 9.76 160.09 9.94 160.23 10.16C160.37 10.39 160.44 10.68 160.44 11.03C160.44 11.35 160.38 11.66 160.27 11.94C160.16 12.22 160.01 12.46 159.80 12.67C159.59 12.88 159.32 13.05 159.01 13.16C158.70 13.29 158.35 13.33 157.96 13.33C157.18 13.33 156.52 13.20 155.99 12.95C155.97 12.75 155.97 12.54 155.96 12.32C155.95 12.10 155.95 11.91 155.93 11.76C155.92 11.61 155.92 11.52 155.92 11.51C155.90 11.28 155.81 11.17 155.61 11.17L155.27 11.17L155.27 13.02L155.27 13.20L155.27 13.38C156.13 13.75 157.01 13.93 157.93 13.93C158.44 13.93 158.89 13.85 159.28 13.69C159.67 13.54 160.01 13.31 160.27 13.05C160.54 12.78 160.76 12.46 160.90 12.10C161.04 11.73 161.11 11.34 161.11 10.92C161.11 10.51 161.04 10.18 160.90 9.91ZM178.67 13.22L178.21 13.17L174.43 3.91L173.71 3.91L169.92 13.17L169.47 13.22C169.29 13.23 169.20 13.33 169.20 13.50L169.20 13.82L169.65 13.82L169.95 13.82L170.20 13.82L170.30 13.82L171.61 13.82L171.61 13.50C171.61 13.31 171.50 13.23 171.29 13.22C171.28 13.22 171.25 13.20 171.21 13.20C171.16 13.20 171.11 13.19 171.01 13.19C170.91 13.19 170.79 13.19 170.65 13.17L171.63 10.75L171.70 10.57L176.43 10.57L176.50 10.75L177.48 13.17C177.34 13.19 177.23 13.19 177.13 13.19C177.03 13.19 176.96 13.20 176.92 13.20C176.88 13.20 176.85 13.22 176.83 13.22C176.62 13.23 176.51 13.31 176.51 13.50L176.51 13.82L177.83 13.82L177.93 13.82L178.19 13.82L178.47 13.82L178.93 13.82L178.93 13.50C178.93 13.33 178.85 13.23 178.67 13.22ZM173.87 5.22C173.89 5.14 173.94 5.04 173.96 4.94C173.99 4.84 174.03 4.75 174.06 4.63C174.09 4.75 174.13 4.84 174.16 4.94C174.19 5.04 174.23 5.12 174.26 5.21L176.22 10.04L171.92 10.04ZM193.69 3.92L193.62 3.92L193.06 3.92L192.95 3.92L191.55 3.92L191.55 4.19C191.55 4.34 191.65 4.42 191.83 4.44L191.94 4.44C192.00 4.44 192.07 4.45 192.18 4.45C192.29 4.45 192.42 4.47 192.56 4.47L189.97 8.64C189.90 8.75 189.84 8.85 189.80 8.95C189.76 9.04 189.71 9.16 189.67 9.25C189.63 9.16 189.59 9.04 189.55 8.95C189.50 8.85 189.45 8.75 189.38 8.64L186.77 4.47C186.91 4.47 187.04 4.45 187.15 4.45C187.26 4.45 187.35 4.44 187.40 4.44L187.50 4.44C187.68 4.42 187.78 4.34 187.78 4.19L187.78 3.92L186.38 3.92L186.27 3.92L185.71 3.92L185.64 3.92L185.19 3.92L185.19 4.19C185.19 4.34 185.29 4.42 185.47 4.44C185.71 4.45 185.89 4.47 185.99 4.47L189.31 9.73L189.31 13.26C189.14 13.26 188.99 13.27 188.85 13.27C188.71 13.27 188.61 13.29 188.54 13.29L188.41 13.29C188.23 13.30 188.13 13.38 188.13 13.54L188.13 13.82L189.31 13.82L190.02 13.82L191.20 13.82L191.20 13.54C191.20 13.38 191.11 13.30 190.93 13.29L190.79 13.29C190.72 13.29 190.62 13.27 190.48 13.27C190.34 13.27 190.19 13.26 190.02 13.26L190.02 9.73L193.34 4.47C193.45 4.47 193.62 4.45 193.86 4.44C194.04 4.42 194.14 4.34 194.14 4.19L194.14 3.92ZM221.38 3.92L220.75 3.92L219.53 3.92L219.53 4.19C219.53 4.34 219.63 4.42 219.81 4.44L219.95 4.44C220.02 4.44 220.14 4.45 220.28 4.45C220.42 4.45 220.58 4.47 220.75 4.47L220.75 12.22C220.75 12.35 220.75 12.49 220.77 12.63L214.35 4.05C214.31 3.99 214.28 3.95 214.24 3.93C214.20 3.92 214.16 3.91 214.09 3.91L213.74 3.91L212.55 3.91L212.55 4.19C212.55 4.34 212.65 4.42 212.83 4.44L212.97 4.44C213.04 4.44 213.14 4.45 213.28 4.45C213.42 4.45 213.57 4.47 213.74 4.47L213.74 13.26C213.57 13.26 213.42 13.27 213.28 13.27C213.14 13.27 213.04 13.29 212.97 13.29L212.83 13.29C212.65 13.30 212.55 13.38 212.55 13.54L212.55 13.82L213.74 13.82L214.35 13.82L215.57 13.82L215.57 13.54C215.57 13.38 215.47 13.30 215.29 13.29L215.15 13.29C215.08 13.29 214.96 13.27 214.82 13.27C214.68 13.27 214.52 13.26 214.35 13.26L214.35 5.49C214.35 5.36 214.35 5.22 214.34 5.08L220.78 13.68C220.85 13.78 220.92 13.82 221.03 13.82L221.38 13.82L221.38 4.47C221.55 4.47 221.69 4.45 221.83 4.45C221.97 4.45 222.08 4.44 222.15 4.44L222.28 4.44C222.46 4.42 222.56 4.34 222.56 4.19L222.56 3.92ZM239.86 8.86C239.86 8.11 239.74 7.41 239.51 6.79C239.29 6.17 238.97 5.64 238.55 5.19C238.13 4.75 237.64 4.40 237.06 4.16C236.49 3.92 235.83 3.79 235.13 3.79C234.43 3.79 233.80 3.92 233.23 4.16C232.65 4.40 232.15 4.75 231.73 5.19C231.31 5.64 230.99 6.17 230.76 6.79C230.54 7.41 230.41 8.11 230.41 8.86C230.41 9.63 230.54 10.33 230.76 10.95C230.99 11.56 231.31 12.10 231.73 12.54C232.15 12.99 232.65 13.33 233.23 13.57C233.80 13.80 234.43 13.93 235.13 13.93C235.83 13.93 236.49 13.80 237.06 13.57C237.64 13.33 238.13 12.99 238.55 12.54C238.97 12.10 239.29 11.56 239.51 10.95C239.74 10.33 239.86 9.63 239.86 8.86ZM239.11 8.86C239.11 9.56 239.02 10.18 238.83 10.72C238.63 11.27 238.36 11.75 238.01 12.12C237.66 12.50 237.24 12.81 236.75 13.01C236.26 13.20 235.73 13.30 235.13 13.30C234.54 13.30 234.01 13.20 233.52 13.01C233.03 12.81 232.61 12.50 232.26 12.12C231.91 11.75 231.63 11.27 231.43 10.72C231.24 10.18 231.15 9.56 231.15 8.86C231.15 8.18 231.24 7.55 231.43 7.00C231.63 6.45 231.91 5.98 232.26 5.60C232.61 5.22 233.03 4.91 233.52 4.72C234.01 4.52 234.54 4.41 235.13 4.41C235.73 4.41 236.26 4.52 236.75 4.72C237.24 4.91 237.66 5.22 238.01 5.60C238.36 5.98 238.63 6.45 238.83 7.00C239.02 7.55 239.11 8.18 239.11 8.86ZM270.38 4.44C270.56 4.42 270.66 4.34 270.66 4.19L270.66 3.92L269.49 3.92L268.98 3.92C268.91 3.92 268.87 3.92 268.83 3.93C268.79 3.95 268.76 3.99 268.72 4.05L264.82 10.92C264.78 10.99 264.75 11.06 264.73 11.13C264.70 11.20 264.67 11.28 264.64 11.35C264.59 11.20 264.53 11.06 264.46 10.93L260.46 4.05C260.41 3.99 260.39 3.95 260.34 3.93C260.30 3.92 260.26 3.92 260.19 3.92L259.70 3.92L258.51 3.92L258.51 4.19C258.51 4.34 258.61 4.42 258.79 4.44L258.93 4.44C259.00 4.44 259.10 4.45 259.24 4.45C259.38 4.45 259.53 4.47 259.70 4.47L259.70 13.26C259.53 13.26 259.38 13.27 259.24 13.27C259.10 13.27 259.00 13.29 258.93 13.29L258.79 13.29C258.61 13.30 258.51 13.38 258.51 13.54L258.51 13.82L259.70 13.82L260.32 13.82L261.53 13.82L261.53 13.54C261.53 13.38 261.44 13.30 261.25 13.29L261.11 13.29C261.04 13.29 260.93 13.27 260.79 13.27C260.65 13.27 260.48 13.26 260.32 13.26L260.32 5.38C260.32 5.25 260.32 5.12 260.30 4.98L264.31 11.91C264.38 12.04 264.47 12.10 264.59 12.10L264.70 12.10C264.82 12.10 264.91 12.04 264.98 11.91L268.87 4.98C268.86 5.12 268.86 5.25 268.86 5.38L268.86 13.26C268.69 13.26 268.52 13.27 268.38 13.27C268.24 13.27 268.13 13.29 268.06 13.29L267.92 13.29C267.74 13.30 267.64 13.38 267.64 13.54L267.64 13.82L268.86 13.82L269.49 13.82L270.66 13.82L270.66 13.54C270.66 13.38 270.56 13.30 270.38 13.29L270.26 13.29C270.19 13.29 270.07 13.27 269.93 13.27C269.79 13.27 269.65 13.26 269.49 13.26L269.49 4.47C269.65 4.47 269.79 4.45 269.93 4.45C270.07 4.45 270.19 4.44 270.26 4.44ZM288.27 8.86C288.27 8.11 288.15 7.41 287.92 6.79C287.70 6.17 287.38 5.64 286.96 5.19C286.54 4.75 286.05 4.40 285.47 4.16C284.90 3.92 284.24 3.79 283.54 3.79C282.84 3.79 282.21 3.92 281.64 4.16C281.06 4.40 280.56 4.75 280.14 5.19C279.72 5.64 279.40 6.17 279.17 6.79C278.95 7.41 278.82 8.11 278.82 8.86C278.82 9.63 278.95 10.33 279.17 10.95C279.40 11.56 279.72 12.10 280.14 12.54C280.56 12.99 281.06 13.33 281.64 13.57C282.21 13.80 282.84 13.93 283.54 13.93C284.24 13.93 284.90 13.80 285.47 13.57C286.05 13.33 286.54 12.99 286.96 12.54C287.38 12.10 287.70 11.56 287.92 10.95C288.15 10.33 288.27 9.63 288.27 8.86ZM287.52 8.86C287.52 9.56 287.43 10.18 287.24 10.72C287.04 11.27 286.78 11.75 286.43 12.12C286.08 12.50 285.66 12.81 285.17 13.01C284.68 13.20 284.14 13.30 283.54 13.30C282.95 13.30 282.42 13.20 281.93 13.01C281.44 12.81 281.02 12.50 280.67 12.12C280.32 11.75 280.04 11.27 279.85 10.72C279.65 10.18 279.57 9.56 279.57 8.86C279.57 8.18 279.65 7.55 279.85 7.00C280.04 6.45 280.32 5.98 280.67 5.60C281.02 5.22 281.44 4.91 281.93 4.72C282.42 4.52 282.95 4.41 283.54 4.41C284.14 4.41 284.68 4.52 285.17 4.72C285.66 4.91 286.08 5.22 286.43 5.60C286.78 5.98 287.04 6.45 287.24 7.00C287.43 7.55 287.52 8.18 287.52 8.86ZM304.54 13.29L304.44 13.29L304.26 13.29C304.18 13.29 304.09 13.27 304.01 13.27L301.04 9.53C300.96 9.42 300.85 9.32 300.73 9.25C301.17 9.21 301.56 9.11 301.91 8.96C302.26 8.81 302.54 8.61 302.79 8.37C303.03 8.13 303.23 7.85 303.35 7.55C303.48 7.24 303.55 6.89 303.55 6.51C303.55 5.66 303.27 5.03 302.71 4.58C302.15 4.14 301.29 3.92 300.15 3.92L297.74 3.92L296.56 3.92L296.56 4.19C296.56 4.34 296.65 4.42 296.83 4.44L296.97 4.44C297.04 4.44 297.14 4.45 297.28 4.45C297.42 4.45 297.57 4.47 297.74 4.47L297.74 13.26C297.57 13.26 297.42 13.27 297.28 13.27C297.14 13.27 297.04 13.29 296.97 13.29L296.83 13.29C296.65 13.30 296.55 13.38 296.55 13.54L296.55 13.82L297.74 13.82L298.45 13.82L299.63 13.82L299.63 13.54C299.63 13.38 299.53 13.30 299.35 13.29L299.21 13.29C299.14 13.29 299.04 13.27 298.90 13.27C298.76 13.27 298.62 13.26 298.45 13.26L298.45 9.34L299.63 9.34C299.82 9.34 299.96 9.35 300.05 9.39C300.13 9.44 300.22 9.52 300.30 9.62L303.48 13.64C303.53 13.71 303.58 13.75 303.63 13.78C303.69 13.80 303.76 13.82 303.83 13.82L303.90 13.82L304.44 13.82L304.81 13.82L304.81 13.54C304.81 13.38 304.72 13.30 304.54 13.29ZM300.05 8.81L298.45 8.81L298.45 4.48L300.15 4.48C301.03 4.48 301.70 4.66 302.16 5.00C302.62 5.33 302.85 5.87 302.85 6.57C302.85 6.92 302.79 7.21 302.67 7.49C302.54 7.77 302.34 7.99 302.11 8.19C301.87 8.39 301.57 8.55 301.22 8.65C300.87 8.75 300.48 8.81 300.05 8.81ZM314.20 3.92L313.01 3.92L313.01 4.19C313.01 4.34 313.11 4.42 313.29 4.44L313.43 4.44C313.50 4.44 313.60 4.45 313.74 4.45C313.88 4.45 314.03 4.47 314.20 4.47L314.20 13.26C314.03 13.26 313.88 13.27 313.74 13.27C313.60 13.27 313.50 13.29 313.43 13.29L313.29 13.29C313.11 13.30 313.03 13.38 313.03 13.54L313.03 13.82L314.20 13.82L320.14 13.82L320.14 13.22L320.14 11.76L319.79 11.76C319.59 11.76 319.51 11.89 319.49 12.11C319.49 12.14 319.48 12.19 319.48 12.29C319.48 12.39 319.48 12.53 319.47 12.74C319.45 12.95 319.44 13.09 319.44 13.22L314.92 13.22L314.92 9.09L318.86 9.09L318.86 8.51L314.92 8.51L314.92 4.51L319.44 4.51C319.47 5.12 319.49 5.50 319.49 5.63C319.51 5.85 319.59 5.96 319.79 5.96L320.14 5.96L320.14 4.51L320.14 3.92ZM329.00 13.29C329.00 13.47 329.06 13.61 329.18 13.73C329.31 13.86 329.46 13.93 329.64 13.93C329.73 13.93 329.81 13.90 329.90 13.87C329.98 13.85 330.04 13.79 330.09 13.73C330.15 13.68 330.20 13.62 330.23 13.54C330.26 13.45 330.29 13.38 330.29 13.29C330.29 13.20 330.26 13.12 330.23 13.03C330.20 12.95 330.15 12.88 330.09 12.82C330.04 12.77 329.98 12.71 329.90 12.68C329.81 12.66 329.73 12.63 329.64 12.63C329.55 12.63 329.46 12.66 329.38 12.68C329.29 12.71 329.24 12.77 329.18 12.82C329.13 12.88 329.07 12.95 329.04 13.03C329.01 13.12 329.00 13.20 329.00 13.29Z"></path></g></svg>